<svg width="78" height="61" viewBox="0 0 78 61" fill="none" xmlns="http://www.w3.org/2000/svg">
<g opacity="0.74">
<path d="M59.0188 60.2266C58.6438 60.2243 58.2735 60.1441 57.9311 59.9911C57.5888 59.8381 57.282 59.6158 57.0301 59.3381L47.5099 48.9082H39.6822C37.6454 48.9082 35.6921 48.0991 34.2519 46.6589C32.8117 45.2186 32.0026 43.2653 32.0026 41.2285V37.3147C32.0026 36.8939 32.1697 36.4903 32.4673 36.1927C32.7649 35.8952 33.1684 35.728 33.5893 35.728C34.0101 35.728 34.4137 35.8952 34.7112 36.1927C35.0088 36.4903 35.176 36.8939 35.176 37.3147V41.2285C35.176 41.8203 35.2925 42.4063 35.519 42.953C35.7454 43.4997 36.0774 43.9965 36.4958 44.4149C36.9142 44.8334 37.411 45.1653 37.9577 45.3917C38.5044 45.6182 39.0904 45.7348 39.6822 45.7348H48.1446C48.3628 45.736 48.5786 45.7816 48.7786 45.8689C48.9786 45.9562 49.1588 46.0833 49.3082 46.2425L58.4687 56.3128V47.3215C58.4687 47.1113 58.5104 46.9032 58.5915 46.7093C58.6725 46.5154 58.7913 46.3396 58.9409 46.192C59.0905 46.0443 59.2679 45.9279 59.4629 45.8494C59.6578 45.7709 59.8664 45.732 60.0766 45.7348H69.7237C70.906 45.7127 72.0328 45.2288 72.8631 44.3867C73.6933 43.5446 74.1611 42.4111 74.1664 41.2285V20.0726C74.1555 18.8957 73.6846 17.7698 72.8544 16.9356C72.0241 16.1014 70.9005 15.6252 69.7237 15.6086H46.8329C46.4121 15.6086 46.0085 15.4415 45.7109 15.1439C45.4134 14.8464 45.2462 14.4428 45.2462 14.0219C45.2462 13.6011 45.4134 13.1975 45.7109 12.9C46.0085 12.6024 46.4121 12.4353 46.8329 12.4353H69.7237C71.7605 12.4353 73.7138 13.2444 75.154 14.6846C76.5942 16.1248 77.4033 18.0781 77.4033 20.1149V41.2709C77.3977 43.3059 76.5868 45.256 75.1478 46.695C73.7088 48.134 71.7587 48.9449 69.7237 48.9505H61.7267V57.561C61.7294 58.1047 61.567 58.6365 61.261 59.086C60.9551 59.5355 60.5199 59.8816 60.0131 60.0785C59.6934 60.1881 59.3565 60.2383 59.0188 60.2266Z" fill="white"/>
<path d="M67.1638 23.3941H46.8329C46.4121 23.3941 46.0085 23.2269 45.711 22.9294C45.4134 22.6318 45.2462 22.2282 45.2462 21.8074C45.2462 21.3866 45.4134 20.983 45.711 20.6854C46.0085 20.3879 46.4121 20.2207 46.8329 20.2207H67.1638C67.5846 20.2207 67.9882 20.3879 68.2858 20.6854C68.5834 20.983 68.7505 21.3866 68.7505 21.8074C68.7505 22.2282 68.5834 22.6318 68.2858 22.9294C67.9882 23.2269 67.5846 23.3941 67.1638 23.3941Z" fill="white"/>
<path d="M67.1638 29.2966H46.8329C46.4121 29.2966 46.0085 29.1294 45.711 28.8318C45.4134 28.5343 45.2462 28.1307 45.2462 27.7099C45.2462 27.2891 45.4134 26.8855 45.711 26.5879C46.0085 26.2903 46.4121 26.1232 46.8329 26.1232H67.1638C67.5846 26.1232 67.9882 26.2903 68.2858 26.5879C68.5834 26.8855 68.7505 27.2891 68.7505 27.7099C68.7505 28.1307 68.5834 28.5343 68.2858 28.8318C67.9882 29.1294 67.5846 29.2966 67.1638 29.2966Z" fill="white"/>
<path d="M67.1638 35.1145H46.8329C46.4121 35.1145 46.0085 34.9473 45.711 34.6497C45.4134 34.3522 45.2462 33.9486 45.2462 33.5278C45.2462 33.1069 45.4134 32.7034 45.711 32.4058C46.0085 32.1082 46.4121 31.9411 46.8329 31.9411H67.1638C67.5846 31.9411 67.9882 32.1082 68.2858 32.4058C68.5834 32.7034 68.7505 33.1069 68.7505 33.5278C68.7505 33.9486 68.5834 34.3522 68.2858 34.6497C67.9882 34.9473 67.5846 35.1145 67.1638 35.1145Z" fill="white"/>
<path d="M54.0683 40.9747H46.8329C46.4121 40.9747 46.0085 40.8075 45.711 40.51C45.4134 40.2124 45.2462 39.8088 45.2462 39.388C45.2462 38.9672 45.4134 38.5636 45.711 38.266C46.0085 37.9685 46.4121 37.8013 46.8329 37.8013H54.0683C54.4891 37.8013 54.8927 37.9685 55.1902 38.266C55.4878 38.5636 55.655 38.9672 55.655 39.388C55.655 39.8088 55.4878 40.2124 55.1902 40.51C54.8927 40.8075 54.4891 40.9747 54.0683 40.9747Z" fill="white"/>
<path d="M36.9743 0.228271H6.93277C5.31682 0.228271 3.76706 0.870203 2.62442 2.01285C1.48178 3.15549 0.839844 4.70525 0.839844 6.32119V27.4772C0.851015 29.0858 1.49787 30.6247 2.63931 31.7582C3.78075 32.8917 5.32413 33.5278 6.93277 33.5278H16.4953V43.725C16.4898 43.9556 16.5557 44.1824 16.6839 44.3742C16.8121 44.5661 16.9963 44.7137 17.2115 44.797C17.4266 44.8803 17.6623 44.8952 17.8862 44.8396C18.1101 44.7841 18.3115 44.6608 18.4628 44.4866L28.4272 33.5278H36.8896C37.6969 33.539 38.4983 33.3897 39.2473 33.0885C39.9963 32.7873 40.678 32.3403 41.2528 31.7734C41.8276 31.2065 42.284 30.531 42.5954 29.7862C42.9069 29.0414 43.0673 28.2422 43.0672 27.4349V6.27888C43.056 4.67028 42.4092 3.13137 41.2677 1.99786C40.1263 0.864352 38.5829 0.228233 36.9743 0.228271ZM21.89 25.7424C21.329 25.7424 20.7908 25.5195 20.3941 25.1227C19.9973 24.726 19.7745 24.1879 19.7745 23.6268C19.7745 23.0517 20.0029 22.5001 20.4096 22.0934C20.8163 21.6868 21.3678 21.4583 21.9429 21.4583C22.5181 21.4583 23.0696 21.6868 23.4763 22.0934C23.883 22.5001 24.1114 23.0517 24.1114 23.6268C24.1118 23.9137 24.0538 24.1978 23.9409 24.4616C23.828 24.7254 23.6627 24.9635 23.4549 25.1614C23.2471 25.3593 23.0012 25.5129 22.7322 25.6128C22.4632 25.7126 22.1766 25.7567 21.89 25.7424ZM23.646 19.3956H20.2822C20.2822 15.5029 23.3921 15.2702 23.3921 12.8372C23.3921 11.7583 22.7363 11.2929 21.615 11.2929C20.4938 11.2929 19.711 12.0122 19.6898 13.5354H16.2202C16.1454 12.749 16.2449 11.9558 16.5116 11.2123C16.7783 10.4688 17.2056 9.79316 17.7631 9.2336C18.3207 8.67404 18.9947 8.24428 19.7373 7.97491C20.4798 7.70555 21.2727 7.60321 22.0593 7.67518C25.4443 7.67518 27.5598 9.28303 27.5598 12.1179C27.6233 15.9472 23.646 16.4549 23.646 19.4167V19.3956Z" fill="white"/>
</g>
</svg>
