<svg width="78" height="61" fill="none" xmlns="http://www.w3.org/2000/svg"><g opacity=".74" fill="#fff"><path d="M59.019 60.227a2.707 2.707 0 01-1.989-.889l-9.52-10.43h-7.828a7.68 7.68 0 01-7.68-7.68v-3.913a1.587 1.587 0 113.174 0v3.913a4.505 4.505 0 004.506 4.507h8.463a1.607 1.607 0 011.163.508l9.16 10.07V47.32a1.587 1.587 0 011.609-1.586h9.647a4.528 4.528 0 004.442-4.507V20.073a4.506 4.506 0 00-4.442-4.464H46.833a1.587 1.587 0 110-3.174h22.89a7.68 7.68 0 017.68 7.68V41.27a7.7 7.7 0 01-7.68 7.68h-7.996v8.61a2.686 2.686 0 01-1.714 2.517c-.32.11-.657.16-.994.149z"/><path d="M67.164 23.394H46.833a1.587 1.587 0 010-3.173h20.33a1.587 1.587 0 010 3.173zm0 5.903H46.833a1.586 1.586 0 010-3.174h20.33a1.587 1.587 0 110 3.174zm0 5.817H46.833a1.586 1.586 0 010-3.173h20.33a1.587 1.587 0 110 3.174zm-13.096 5.861h-7.235a1.587 1.587 0 010-3.174h7.235a1.587 1.587 0 010 3.174zM36.974.228H6.933A6.093 6.093 0 00.84 6.321v21.156a6.093 6.093 0 006.093 6.05h9.562v10.198a1.12 1.12 0 001.968.762l9.964-10.96h8.463a6.093 6.093 0 006.177-6.092V6.279a6.093 6.093 0 00-6.093-6.05zM21.89 25.742a2.115 2.115 0 01-2.116-2.115 2.169 2.169 0 114.337 0 2.114 2.114 0 01-2.221 2.115zm1.756-6.346h-3.364c0-3.893 3.11-4.126 3.11-6.559 0-1.079-.656-1.544-1.777-1.544s-1.904.72-1.925 2.242h-3.47a5.373 5.373 0 015.84-5.86c3.384 0 5.5 1.608 5.5 4.443.063 3.83-3.914 4.337-3.914 7.299v-.021z"/></g></svg>