<svg width="414" height="93" fill="none" xmlns="http://www.w3.org/2000/svg"><path d="M33.9 25.653a6.67 6.67 0 01-2.4 2.4 10.54 10.54 0 01-3.31 1.24c-1.24.249-2.481.414-3.805.414h-9.681l-.083-15.72h7.447c1.406 0 2.813.082 4.303.247 1.489.166 2.813.497 4.054 1.076 1.241.58 2.234 1.324 3.061 2.4.828 1.075 1.159 2.4 1.159 4.054.165 1.572-.166 2.813-.745 3.889zm15.97-3.889c0-3.889-.662-7.199-1.986-9.764-1.324-2.565-3.144-4.633-5.461-6.206-2.234-1.489-4.965-2.565-7.944-3.227-3.061-.662-6.288-.91-9.68-.91H.14l.082 66.195h14.563l-.082-25.816h10.674c3.475 0 6.702-.33 9.763-.993 2.98-.662 5.544-1.737 7.778-3.31 2.152-1.572 3.89-3.64 5.13-6.288 1.159-2.565 1.82-5.792 1.82-9.681z" fill="#fff"/><path d="M87.6 54.696c-.58 1.075-1.407 1.903-2.4 2.647-.993.662-2.152 1.241-3.393 1.572-1.324.414-2.648.58-3.972.58-.744 0-1.489-.083-2.316-.249-.828-.165-1.49-.496-2.152-.91-.579-.413-1.158-.91-1.49-1.572-.413-.58-.578-1.324-.578-2.234 0-1.572.496-2.813 1.489-3.64.993-.91 2.317-1.49 3.724-1.987 1.489-.413 2.978-.661 4.55-.827 1.573-.083 2.897-.166 3.972-.166h3.475l.083 2.98c-.083 1.489-.414 2.73-.993 3.806zm13.735-9.02L91.571 23.17c-.248-.165-.58-.248-.828-.414-2.647-.993-6.04-1.572-10.177-1.572-3.724 0-7.364.58-10.84 1.82-3.475 1.242-6.536 3.062-9.101 5.462l7.447 7.695a18.207 18.207 0 015.13-3.972c1.903-.993 3.972-1.407 6.288-1.407 2.4 0 4.551.745 6.289 2.235 1.737 1.489 2.648 3.475 2.73 5.957-2.896 0-6.205.083-9.763.248-3.558.166-6.868.828-10.012 1.82-3.145.994-5.71 2.649-7.861 4.8-.497.496-.993 1.076-1.324 1.738V2.319H45.483v3.227c1.737 1.489 3.227 3.392 4.468 5.626 1.49 2.896 2.234 6.454 2.234 10.84 0 4.302-.745 7.86-2.069 10.756-1.158 2.4-2.648 4.386-4.55 5.958v29.209h13.983v-5.958c.827 1.324 1.82 2.565 3.062 3.558a15.505 15.505 0 005.212 2.648c1.986.579 3.972.91 6.123.91 2.897 0 5.627-.496 8.192-1.572 2.565-1.076 4.634-2.814 6.206-5.213h.165l.083 5.71H101.5l-.165-22.342z" fill="#fff"/><path d="M140.642 2.319v17.955h5.296l-.91 2.234h-14.315l-10.012 30.036h-.165l-11.667-30.036H93.727l19.858 45.84-.993 2.648c-.496 1.241-2.068 4.551-2.482 5.544a8.27 8.27 0 01-1.655 2.4c-.662.661-1.489 1.158-2.482 1.489-.993.33-2.317.496-3.889.496-2.234 0-4.386-.496-6.454-1.406L93.81 91.02c3.31 1.159 6.784 1.655 10.425 1.655 3.393 0 6.04-.331 8.109-.993 2.069-.662 3.724-1.655 5.13-2.896a14.208 14.208 0 003.31-4.716 144.928 144.928 0 002.648-6.454l17.21-43.772v34.09h13.984V2.401h-13.984V2.32zm50.14 48.571c1.738.413 3.227.91 4.386 1.489 1.158.579 1.737 1.49 1.737 2.648 0 1.24-.662 2.068-1.986 2.565-1.323.496-2.73.662-4.385.662-2.151 0-3.972-.414-5.544-1.242-1.572-.827-3.061-2.068-4.385-3.723l-8.44 9.515-1.489-1.489 3.227-3.64V41.29c.248.828.579 1.572 1.075 2.151 1.159 1.738 2.648 3.062 4.468 3.972 1.821.91 3.724 1.655 5.71 2.069 1.986.579 3.889.993 5.626 1.406zm49.481 6.04c-1.158.165-2.151.248-2.896.248-1.489 0-2.73-.166-3.558-.58-.91-.413-1.572-.992-1.986-1.737a8.36 8.36 0 01-.91-2.648c-.165-.993-.248-2.151-.165-3.392V33.679h12.328V22.425h-12.328V8.938h-13.984v13.487h-8.936v3.558c-1.821-1.572-3.972-2.647-6.372-3.392a31.468 31.468 0 00-9.102-1.324 27.6 27.6 0 00-6.95.91c-2.317.58-4.303 1.49-6.123 2.73-1.82 1.242-3.227 2.814-4.303 4.8-.414.745-.744 1.49-.993 2.317v-9.599h-14.149v45.427h14.067v-3.475c1.903 1.489 4.054 2.565 6.454 3.227a35.304 35.304 0 009.598 1.324c2.399 0 4.882-.249 7.364-.662 2.482-.497 4.716-1.242 6.702-2.4 1.986-1.158 3.641-2.648 4.882-4.55 1.324-1.904 1.903-4.304 1.903-7.282 0-2.896-.579-5.13-1.737-6.868-1.159-1.738-2.565-3.062-4.386-4.054-1.737-.994-3.64-1.738-5.709-2.235-2.069-.496-3.889-.91-5.627-1.324-1.737-.413-3.227-.91-4.385-1.406-1.159-.497-1.82-1.324-1.738-2.483 0-1.406.58-2.316 1.655-2.895 1.076-.58 2.234-.828 3.475-.828 3.393 0 6.123 1.241 8.192 3.806l8.523-8.44c.496.497.91.993 1.324 1.49l-2.648 2.73v2.069h8.936l-.083 21.596c0 2.482.497 4.634 1.324 6.371.828 1.738 1.986 3.145 3.476 4.22a15.087 15.087 0 005.212 2.4c1.986.496 4.22.745 6.537.745 1.655 0 3.31-.083 4.965-.249 1.655-.165 3.31-.579 4.882-1.158l-.083-11.667c-.579.58-1.489.91-2.648 1.076z" fill="#fff"/><path d="M174.897 9.766c.083-.662.083-1.076.083-1.655 0-2.234-.828-4.137-2.317-5.71-1.572-1.572-3.475-2.399-5.71-2.399-1.158 0-2.151.248-3.144.662-.993.414-1.903.993-2.648 1.738a7.833 7.833 0 00-1.737 2.565c-.414.993-.662 2.068-.662 3.144 0 1.158.248 2.151.662 3.144.414.993.993 1.82 1.737 2.565a7.832 7.832 0 002.565 1.738c.745.33 1.49.496 2.235.579-1.324 1.407-3.227 2.648-6.123 2.979v1.737c0-.082 13.735 1.159 15.059-11.087zm84.729 21.181h7.613c2.069 0 3.558.58 4.551 1.655.993 1.158 1.572 2.648 1.572 4.468 0 1.82-.497 3.227-1.489 4.385-.993 1.076-2.483 1.655-4.551 1.655h-7.613V30.947h-.083zm7.613-8.605h-17.294V67.85h9.681V51.716h7.613c4.799 0 8.688-1.324 11.501-4.055 2.814-2.648 4.22-6.288 4.22-10.674 0-4.385-1.406-7.943-4.22-10.591-2.813-2.648-6.702-4.054-11.501-4.054zm42.281 30.036c0 2.565-.662 4.468-1.986 5.626-1.407 1.241-3.227 1.903-5.709 1.903-2.317 0-4.138-.579-5.461-1.903-1.324-1.241-1.904-3.061-1.904-5.71V22.343h-9.681v30.036c0 5.13 1.573 9.101 4.8 11.915 3.144 2.73 7.281 4.137 12.246 4.137 5.047 0 9.267-1.407 12.411-4.137 3.227-2.814 4.882-6.868 4.882-11.998V22.342h-9.681v30.036h.083zm57.093-11.665c-3.144-.91-5.378-1.82-6.702-2.813-1.076-.828-1.572-1.738-1.572-2.897 0-1.324.496-2.4 1.489-3.31 1.076-.91 2.648-1.323 4.717-1.323 2.234 0 3.889.579 5.047 1.655 1.159 1.075 1.655 2.482 1.655 4.302v1.407h9.35c0-.414.083-1.572.083-1.572.083-3.972-1.324-7.364-4.386-10.178-2.978-2.813-6.867-4.22-11.666-4.22-4.551 0-8.44 1.242-11.336 3.641-3.062 2.482-4.551 5.71-4.551 9.598 0 3.807 1.406 6.868 4.137 9.185 2.565 2.151 6.288 3.972 11.005 5.213 2.979.827 4.964 1.737 6.04 2.73.91.828 1.407 1.904 1.407 3.31 0 1.324-.497 2.4-1.49 3.144-1.158.828-2.813 1.324-4.964 1.324-2.4 0-4.303-.579-5.792-1.654-1.324-.994-1.986-2.566-1.986-4.634v-1.407h-9.35l-.083 1.572c-.083 4.551 1.655 8.275 5.213 10.922 3.392 2.566 7.447 3.807 11.998 3.807 4.716 0 8.605-1.159 11.501-3.475 3.062-2.4 4.634-5.627 4.634-9.599 0-3.723-1.324-6.868-3.806-9.35-2.483-2.317-6.041-4.137-10.592-5.378z" fill="#fff"/><path d="M351.636 65.948c-2.4-1.82-4.055-4.055-4.882-6.703h-12.743V22.342h-9.681V67.85h30.367c-1.075-.497-2.068-1.159-3.061-1.903zm41.703-6.62V48.737h17.708v-8.605h-17.708v-9.185h20.355v-8.605h-30.036v45.591h30.202v-8.605h-20.521z" fill="#fff"/></svg>