<svg width="267" height="211" fill="none" xmlns="http://www.w3.org/2000/svg"><path d="M296.591 211.792c0-9.785-.54-171.2 0-211.584-34.347 45.142-151.285 117.551-151.285 117.551s-39.538 26.779-75.292 57.018C48.21 193.212 18.763 208.818.922 211.792H296.59z" fill="url(#paint0_linear_131_1436)"/><path style="mix-blend-mode:multiply" opacity=".7" d="M296.591 211.792c0-9.785-.54-171.2 0-211.584-34.347 45.142-151.285 117.551-151.285 117.551s-39.538 26.779-75.292 57.018C48.21 193.212 18.763 208.818.922 211.792H296.59z" fill="url(#paint1_linear_131_1436)"/><path d="M245.375 48.252C209.838 64.56 110.596 63.425 66.968 64.055c0 33.267-5.173 91.348-13.732 117.244-2.56 7.713-6.488 10.416-6.488 10.416a58.985 58.985 0 0010.488-6.199C89.89 162.432 193.547 89.465 245.375 48.251z" fill="url(#paint2_linear_131_1436)"/><path d="M133.641 173.381c-.297 0-.564-.104-.801-.312a1.18 1.18 0 01-.311-.8V143.4c0-.326.103-.593.311-.8.208-.237.474-.356.801-.356h20.683c.327 0 .593.119.801.356.237.207.356.474.356.8v4.715c0 .327-.119.593-.356.801-.208.208-.474.311-.801.311h-13.611v6.183h12.722c.326 0 .593.119.8.356.238.208.356.475.356.801v4.715c0 .326-.118.593-.356.8-.207.208-.474.312-.8.312h-12.722v9.875c0 .296-.104.563-.311.8-.208.208-.475.312-.801.312h-5.96zm26.746 0c-.296 0-.563-.104-.8-.312a1.182 1.182 0 01-.312-.8v-20.862c0-.326.104-.593.312-.801.207-.237.474-.356.8-.356h5.427c.326 0 .593.119.801.356.237.208.355.475.355.801v1.69a8.313 8.313 0 012.892-2.09c1.127-.504 2.372-.757 3.736-.757h2.002c.326 0 .593.104.8.312.208.207.312.474.312.801v4.848c0 .296-.104.563-.312.801-.207.207-.474.311-.8.311h-4.493c-1.186 0-2.105.326-2.758.979-.622.652-.934 1.571-.934 2.757v11.21c0 .326-.118.593-.356.8-.207.208-.474.312-.8.312h-5.872zm30.071.444c-3.618 0-6.465-.963-8.541-2.891-2.075-1.957-3.143-4.789-3.202-8.496v-1.379c.118-3.528 1.216-6.286 3.291-8.273 2.076-1.987 4.879-2.98 8.407-2.98 2.551 0 4.701.519 6.45 1.557 1.779 1.008 3.099 2.416 3.959 4.225.89 1.779 1.334 3.811 1.334 6.094v1.112c0 .326-.118.608-.356.845-.207.208-.474.312-.8.312h-14.101v.267c.03 1.334.341 2.416.934 3.247.594.8 1.439 1.201 2.536 1.201.712 0 1.275-.134 1.69-.401.445-.296.86-.667 1.246-1.112.267-.296.474-.474.622-.533.178-.089.445-.134.801-.134h5.827c.267 0 .489.089.667.267a.68.68 0 01.312.578c0 .771-.445 1.676-1.335 2.714-.86 1.037-2.135 1.927-3.825 2.668-1.661.742-3.633 1.112-5.916 1.112zm3.514-14.411v-.089c0-1.424-.312-2.521-.934-3.292-.623-.801-1.498-1.201-2.625-1.201-1.126 0-2.001.4-2.624 1.201-.593.771-.89 1.868-.89 3.292v.089h7.073zm23.027 14.411c-3.618 0-6.465-.963-8.541-2.891-2.075-1.957-3.143-4.789-3.202-8.496v-1.379c.118-3.528 1.216-6.286 3.291-8.273 2.076-1.987 4.878-2.98 8.407-2.98 2.551 0 4.7.519 6.45 1.557 1.779 1.008 3.099 2.416 3.959 4.225.889 1.779 1.334 3.811 1.334 6.094v1.112c0 .326-.118.608-.356.845-.207.208-.474.312-.8.312H213.44v.267c.03 1.334.341 2.416.934 3.247.593.8 1.439 1.201 2.536 1.201.711 0 1.275-.134 1.69-.401.445-.296.86-.667 1.246-1.112.266-.296.474-.474.622-.533.178-.089.445-.134.801-.134h5.827c.267 0 .489.089.667.267a.68.68 0 01.312.578c0 .771-.445 1.676-1.335 2.714-.86 1.037-2.135 1.927-3.825 2.668-1.661.742-3.633 1.112-5.916 1.112zm3.514-14.411v-.089c0-1.424-.312-2.521-.934-3.292-.623-.801-1.498-1.201-2.625-1.201s-2.001.4-2.624 1.201c-.593.771-.89 1.868-.89 3.292v.089h7.073z" fill="#fff"/><defs><linearGradient id="paint0_linear_131_1436" x1="28.875" y1="-40.869" x2="338.045" y2="-13.687" gradientUnits="userSpaceOnUse"><stop stop-color="#0085FF"/><stop offset="1" stop-color="#591FFF"/></linearGradient><linearGradient id="paint1_linear_131_1436" x1="128.312" y1="80.87" x2="268.929" y2="253.961" gradientUnits="userSpaceOnUse"><stop stop-color="#505252"/><stop offset=".42" stop-color="#C4CBCF"/><stop offset=".7" stop-color="#fff"/><stop offset="1" stop-color="#F0F0F0"/></linearGradient><linearGradient id="paint2_linear_131_1436" x1="94.125" y1="42.701" x2="160.154" y2="140.933" gradientUnits="userSpaceOnUse"><stop stop-color="#F0F0F0"/><stop offset=".4" stop-color="#fff"/><stop offset=".66" stop-color="#C4CBCF"/><stop offset="1" stop-color="#2F3030"/></linearGradient></defs></svg>