<svg width="103" height="80" viewBox="0 0 103 80" fill="none" xmlns="http://www.w3.org/2000/svg">
<g style="mix-blend-mode:multiply">
<circle cx="11.0176" cy="36.6865" r="10.5" fill="url(#paint0_linear_131_1614)"/>
</g>
<path d="M12.5822 79.2923H100.203C100.618 79.2923 101.016 79.1275 101.309 78.8341C101.603 78.5407 101.768 78.1426 101.768 77.7277V2.62423C101.768 2.20931 101.603 1.81116 101.309 1.51779C101.016 1.22442 100.618 1.05957 100.203 1.05957H12.5822C11.7182 1.05957 11.0176 1.76018 11.0176 2.62423V77.7277C11.0176 78.1426 11.1824 78.5407 11.4758 78.8341C11.7692 79.1275 12.1673 79.2923 12.5822 79.2923ZM14.1469 76.163V20.6812H98.6383V76.163H14.1469ZM14.1469 4.18888H98.6383V17.5514H14.1469V4.18888Z" fill="black" stroke="black" stroke-width="0.7"/>
<path d="M22.2509 5.97297C20.9524 5.97297 19.7064 6.48847 18.7885 7.407C17.87 8.32553 17.3538 9.57105 17.3538 10.8702C17.3538 12.1687 17.87 13.4147 18.7885 14.3326C19.7063 15.2511 20.9525 15.7673 22.2509 15.7673C23.5502 15.7673 24.7955 15.2511 25.7141 14.3326C26.6326 13.4148 27.1481 12.1686 27.1481 10.8702C27.1439 9.57234 26.627 8.32898 25.7092 7.41183C24.7921 6.49399 23.5487 5.9771 22.2509 5.9729L22.2509 5.97297ZM22.2509 12.638C21.5357 12.638 20.8909 12.2071 20.6178 11.5463C20.344 10.8862 20.4949 10.1255 21.0006 9.61987C21.5063 9.11423 22.267 8.96257 22.9277 9.23639C23.5885 9.51022 24.0188 10.1549 24.0188 10.8702C24.0104 11.8432 23.2239 12.6297 22.2509 12.6381L22.2509 12.638Z" fill="black" stroke="black" stroke-width="0.7"/>
<path d="M33.9869 5.9729C32.6884 5.9729 31.4423 6.4884 30.5244 7.40693C29.6059 8.32546 29.0897 9.57098 29.0897 10.8701C29.0897 12.1686 29.6059 13.4147 30.5244 14.3325C31.4423 15.2511 32.6885 15.7673 33.9869 15.7673C35.2861 15.7673 36.5315 15.2511 37.4501 14.3325C38.3686 13.4147 38.8841 12.1685 38.8841 10.8701C38.8841 9.57087 38.3686 8.32552 37.4501 7.40693C36.5315 6.4884 35.286 5.9729 33.9869 5.9729ZM33.9869 12.638C33.2716 12.638 32.6269 12.207 32.3538 11.5462C32.08 10.8861 32.2309 10.1254 32.7366 9.6198C33.2423 9.11416 34.003 8.9625 34.6637 9.23632C35.3244 9.51015 35.7548 10.1549 35.7548 10.8701C35.7548 11.8466 34.9633 12.638 33.9868 12.638L33.9869 12.638Z" fill="black" stroke="black" stroke-width="0.7"/>
<path d="M45.7214 5.97314C44.4229 5.97314 43.1768 6.48864 42.2589 7.40717C41.3404 8.32571 40.8242 9.57123 40.8242 10.8703C40.8242 12.1689 41.3404 13.4149 42.2589 14.3328C43.1768 15.2513 44.423 15.7675 45.7214 15.7675C47.0206 15.7675 48.266 15.2513 49.1846 14.3328C50.1031 13.4149 50.6186 12.1687 50.6186 10.8703C50.6186 9.57112 50.1031 8.32576 49.1846 7.40717C48.266 6.48864 47.0205 5.97314 45.7214 5.97314ZM45.7214 12.6382C45.0061 12.6382 44.3614 12.2072 44.0883 11.5464C43.8145 10.8864 43.9653 10.1257 44.4711 9.62004C44.9768 9.1144 45.7375 8.96274 46.3982 9.23657C47.0589 9.51039 47.4893 10.1551 47.4893 10.8704C47.4893 11.8469 46.6978 12.6383 45.7213 12.6383L45.7214 12.6382Z" fill="black" stroke="black" stroke-width="0.7"/>
<path d="M47.0978 49.689C47.4624 50.3309 48.2252 50.6305 48.9285 50.4091L52.0578 49.4389L58.3164 55.1031C58.6266 55.3832 59.0359 55.5278 59.4536 55.504C59.8713 55.4803 60.2618 55.291 60.5384 54.9774L64.4346 50.6747C64.7036 50.3527 64.8321 49.9356 64.7909 49.5179C64.7497 49.1002 64.5422 48.7167 64.2153 48.4534L61.8368 46.3097L68.9093 44.0878C69.3605 43.9453 69.723 43.6058 69.8949 43.1643C70.0639 42.7229 70.0234 42.2276 69.7852 41.819L61.2111 26.9702C60.975 26.5594 60.5649 26.2786 60.0962 26.2053C59.6282 26.1327 59.1519 26.2758 58.8019 26.5951L43.3587 40.677C42.8159 41.1736 42.6916 41.9811 43.0611 42.6168L47.0978 49.689ZM61.0078 49.689L59.2086 51.723L55.4534 48.3437L58.4262 47.4049L61.0078 49.689ZM59.5214 30.2085L66.0776 41.7401L49.1793 47.0914L46.3629 42.2095L59.5214 30.2085Z" fill="black" stroke="black" stroke-width="0.7"/>
<path d="M69.7387 57.3873H43.0466C41.1872 57.2978 39.3717 57.9747 38.0243 59.2593C36.6769 60.5431 35.9141 62.3237 35.9141 64.1859C35.9141 66.0474 36.6768 67.8279 38.0243 69.1125C39.3717 70.3971 41.1872 71.0732 43.0466 70.9846H69.7387C71.598 71.0733 73.4136 70.3971 74.761 69.1125C76.1084 67.828 76.8712 66.0474 76.8712 64.1859C76.8712 62.3237 76.1084 60.5432 74.761 59.2593C73.4135 57.9747 71.598 57.2978 69.7387 57.3873ZM69.7387 67.8551H43.0466C42.0316 67.9214 41.0349 67.5645 40.2931 66.8688C39.5506 66.1738 39.1301 65.2028 39.1301 64.1858C39.1301 63.1688 39.5506 62.1972 40.2931 61.5021C41.0349 60.8071 42.0317 60.4501 43.0466 60.5165H69.7387C70.7536 60.4501 71.7504 60.8071 72.4921 61.5021C73.2346 62.1971 73.6551 63.1687 73.6551 64.1858C73.6551 65.2029 73.2346 66.1737 72.4921 66.8688C71.7503 67.5645 70.7535 67.9214 69.7387 67.8551Z" fill="black" stroke="black" stroke-width="0.7"/>
<defs>
<linearGradient id="paint0_linear_131_1614" x1="2.50299" y1="22.1096" x2="24.5443" y2="23.4963" gradientUnits="userSpaceOnUse">
<stop stop-color="#0085FF"/>
<stop offset="1" stop-color="#591FFF"/>
</linearGradient>
</defs>
</svg>
