<svg width="92" height="92" fill="none" xmlns="http://www.w3.org/2000/svg"><circle cx="10.982" cy="11.06" r="10.5" fill="url(#paint0_linear_207_13)"/><path d="M57.476 34.082a4.596 4.596 0 014.592 4.59 4.593 4.593 0 01-1.083 2.962 1.352 1.352 0 001.03 2.224h10.508a1.35 1.35 0 001.35-1.351v-27.22a4.231 4.231 0 00-4.226-4.227H15.21a4.231 4.231 0 00-4.227 4.226v54.44a4.231 4.231 0 004.227 4.227h27.22a1.35 1.35 0 001.351-1.35V64.41c.79.286 1.632.436 2.483.436 4.021 0 7.294-3.271 7.294-7.294 0-4.022-3.273-7.293-7.294-7.293-.853 0-1.693.15-2.483.436v-6.84h9.157a1.35 1.35 0 001.032-2.223 4.592 4.592 0 01-1.084-2.961 4.597 4.597 0 014.592-4.592v.002zM15.207 13.76h25.87v6.84a7.307 7.307 0 00-2.482-.437c-4.021 0-7.294 3.272-7.294 7.294s3.273 7.294 7.294 7.294a7.3 7.3 0 002.483-.436v6.84H31.92a1.35 1.35 0 00-1.03 2.222 4.59 4.59 0 11-7.017 0 1.352 1.352 0 00-1.031-2.223h-9.16V15.285c0-.84.686-1.525 1.526-1.525h0zm31.055 39.2a4.596 4.596 0 014.591 4.592 4.596 4.596 0 01-4.591 4.592A4.594 4.594 0 0143.3 61.06a1.352 1.352 0 00-2.223 1.032v9.157h-25.87c-.84 0-1.524-.683-1.524-1.524V43.858h6.839a7.306 7.306 0 00-.436 2.482c0 4.021 3.271 7.294 7.294 7.294a7.301 7.301 0 007.293-7.294c0-.853-.15-1.693-.436-2.482h6.84v9.157a1.35 1.35 0 002.223 1.03 4.598 4.598 0 012.962-1.082v-.001zm3.92-14.289a7.3 7.3 0 00.436 2.483H43.78v-9.157a1.35 1.35 0 00-2.223-1.031 4.592 4.592 0 01-2.962 1.083 4.596 4.596 0 01-4.59-4.591 4.596 4.596 0 014.59-4.592c1.084 0 2.136.386 2.962 1.084a1.352 1.352 0 002.223-1.031v-9.16h25.87c.84 0 1.524.684 1.524 1.525v25.87h-6.839a7.31 7.31 0 00.436-2.483c0-4.021-3.271-7.294-7.294-7.294-4.021.001-7.294 3.272-7.294 7.295h0zm39.83 19.973h-8.19a7.331 7.331 0 00.435-2.483c0-4.021-3.272-7.294-7.293-7.294-4.022 0-7.294 3.273-7.294 7.294 0 .853.15 1.693.436 2.483h-8.19a1.35 1.35 0 00-1.35 1.35v10.508a1.35 1.35 0 002.222 1.03 4.592 4.592 0 012.962-1.082 4.596 4.596 0 014.591 4.59 4.596 4.596 0 01-4.591 4.592 4.593 4.593 0 01-2.962-1.083 1.352 1.352 0 00-2.223 1.031v10.51c0 .746.605 1.35 1.35 1.35h27.222a4.231 4.231 0 004.226-4.226V59.995a1.35 1.35 0 00-1.35-1.35h0zm-1.35 28.57c0 .841-.684 1.525-1.525 1.525h-25.87v-6.838c.79.285 1.632.436 2.483.436 4.021 0 7.294-3.272 7.294-7.294a7.301 7.301 0 00-7.294-7.294c-.853 0-1.693.15-2.483.436v-6.84h9.158a1.35 1.35 0 001.03-2.222 4.59 4.59 0 117.017 0 1.352 1.352 0 001.031 2.223h9.157v25.868h.002z" fill="#000" stroke="#000"/><defs><linearGradient id="paint0_linear_207_13" x1="2.468" y1="-3.517" x2="24.509" y2="-2.131" gradientUnits="userSpaceOnUse"><stop stop-color="#0085FF"/><stop offset="1" stop-color="#591FFF"/></linearGradient></defs></svg>