<svg width="103" height="80" fill="none" xmlns="http://www.w3.org/2000/svg"><circle cx="11.018" cy="36.687" r="10.5" fill="url(#paint0_linear_131_1614)"/><path d="M12.582 79.292h87.621a1.563 1.563 0 001.565-1.564V2.624a1.563 1.563 0 00-1.565-1.564h-87.62c-.865 0-1.565.7-1.565 1.564v75.104a1.565 1.565 0 001.564 1.564zm1.565-3.129V20.681h84.491v55.482H14.147zm0-71.974h84.491V17.55H14.147V4.19z" fill="#000" stroke="#000" stroke-width=".7"/><path d="M22.25 5.973a4.895 4.895 0 00-4.896 4.897 4.896 4.896 0 008.36 3.463 4.895 4.895 0 001.434-3.463 4.91 4.91 0 00-4.897-4.897h0zm0 6.665A1.767 1.767 0 0121 9.62a1.768 1.768 0 013.019 1.25 1.783 1.783 0 01-1.768 1.768h0zm11.737-6.665a4.895 4.895 0 00-3.463 8.36 4.896 4.896 0 008.36-3.463 4.897 4.897 0 00-4.897-4.897zm0 6.665a1.767 1.767 0 01-1.25-3.018 1.768 1.768 0 111.25 3.018h0zm11.734-6.665a4.895 4.895 0 00-3.462 8.36 4.896 4.896 0 103.462-8.36zm0 6.665a1.767 1.767 0 01-1.25-3.018 1.768 1.768 0 111.25 3.018h0zm1.377 37.051a1.565 1.565 0 001.83.72l3.13-.97 6.258 5.664a1.564 1.564 0 002.222-.126l3.897-4.302a1.565 1.565 0 00-.22-2.222l-2.378-2.143 7.072-2.222c.451-.143.814-.482.986-.924a1.563 1.563 0 00-.11-1.345L61.211 26.97a1.563 1.563 0 00-2.41-.375L43.36 40.677a1.564 1.564 0 00-.298 1.94l4.037 7.072zm13.91 0l-1.8 2.034-3.755-3.38 2.973-.938 2.582 2.284zm-1.487-19.48l6.557 11.531-16.899 5.351-2.816-4.882 13.158-12zm10.218 27.178H43.047a6.805 6.805 0 100 13.598h26.692a6.809 6.809 0 007.132-6.8 6.805 6.805 0 00-7.132-6.798zm0 10.468H43.047a3.674 3.674 0 01-3.917-3.67 3.675 3.675 0 013.917-3.669h26.692a3.676 3.676 0 110 7.34z" fill="#000" stroke="#000" stroke-width=".7"/><defs><linearGradient id="paint0_linear_131_1614" x1="2.503" y1="22.11" x2="24.544" y2="23.496" gradientUnits="userSpaceOnUse"><stop stop-color="#0085FF"/><stop offset="1" stop-color="#591FFF"/></linearGradient></defs></svg>