<svg width="52" height="42" fill="none" xmlns="http://www.w3.org/2000/svg"><path d="M28.887 28.77c0-6.362 2.43-12.26 7.287-17.697C41.032 5.637 45.196 2.224 48.666.836L51.27 4.48c-3.47 1.85-6.42 4.51-8.849 7.98-2.313 3.47-3.643 7.056-3.99 10.758.925-.579 2.37-.868 4.337-.868 2.082 0 3.875.926 5.379 2.776 1.503 1.735 2.255 4.049 2.255 6.94 0 2.892-1.099 5.263-3.296 7.114-2.082 1.735-4.685 2.602-7.808 2.602s-5.667-1.099-7.634-3.296c-1.85-2.198-2.776-5.437-2.776-9.716zM11.364 41.782c-3.007 0-5.494-1.62-7.46-4.858C1.936 33.686.953 30.1.953 26.167c0-3.932.81-7.402 2.429-10.41 1.62-3.123 3.643-5.667 6.072-7.634 4.627-3.701 8.386-6.13 11.278-7.287l2.602 3.644c-3.47 1.85-6.42 4.51-8.848 7.98-2.313 3.47-3.644 7.056-3.99 10.758.925-.579 2.37-.868 4.337-.868 2.082 0 3.875.926 5.378 2.776 1.504 1.735 2.256 4.049 2.256 6.94 0 2.892-1.099 5.263-3.297 7.114-2.082 1.735-4.684 2.602-7.807 2.602z" fill="#fff"/></svg>