<svg width="183" height="42" fill="none" xmlns="http://www.w3.org/2000/svg"><path d="M14.865 11.816c-.255.437-.62.802-1.057 1.057a4.65 4.65 0 01-1.457.546 8.433 8.433 0 01-1.676.182H6.412L6.376 6.68h3.279a17 17 0 011.894.11c.656.072 1.24.218 1.786.473s.983.583 1.348 1.057c.364.473.51 1.056.51 1.785a2.847 2.847 0 01-.328 1.712zm7.031-1.712c0-1.713-.291-3.17-.874-4.3a7.272 7.272 0 00-2.405-2.732c-.983-.656-2.186-1.13-3.497-1.42-1.348-.292-2.77-.402-4.263-.402H0l.036 29.147H6.45L6.412 19.03h4.7c1.53 0 2.951-.146 4.3-.437 1.31-.292 2.44-.765 3.424-1.458a7.089 7.089 0 002.259-2.769c.51-1.129.801-2.55.801-4.262z" fill="#fff"/><path d="M38.51 24.604c-.256.473-.62.838-1.057 1.166a5.104 5.104 0 01-1.494.692 5.81 5.81 0 01-1.749.255c-.328 0-.656-.037-1.02-.11-.364-.072-.656-.218-.947-.4-.255-.182-.51-.4-.656-.692-.182-.255-.255-.583-.255-.984 0-.692.218-1.239.656-1.603.437-.4 1.02-.656 1.64-.875a12.155 12.155 0 012.003-.364c.692-.036 1.275-.073 1.749-.073h1.53l.037 1.312c-.037.656-.183 1.202-.438 1.676zm6.047-3.971l-4.299-9.91c-.11-.073-.255-.11-.364-.183-1.166-.437-2.66-.692-4.482-.692-1.64 0-3.242.255-4.772.802-1.53.546-2.879 1.348-4.008 2.404l3.279 3.389a8.019 8.019 0 012.259-1.75c.838-.436 1.749-.618 2.769-.618 1.056 0 2.004.328 2.769.983.765.656 1.166 1.53 1.202 2.623a93.94 93.94 0 00-4.3.11 17.178 17.178 0 00-4.407.801 8.387 8.387 0 00-3.462 2.113c-.218.219-.437.474-.583.766V1.54h-6.193v1.421c.765.656 1.42 1.494 1.967 2.478.656 1.275.984 2.842.984 4.773 0 1.894-.328 3.46-.911 4.736-.51 1.057-1.166 1.93-2.004 2.623v12.861h6.157V27.81c.365.583.802 1.13 1.348 1.567.656.51 1.421.91 2.296 1.165a9.46 9.46 0 002.696.401c1.275 0 2.477-.218 3.607-.692 1.13-.474 2.04-1.239 2.732-2.295h.073l.037 2.514h5.683l-.073-9.837z" fill="#fff"/><path d="M61.865 1.542v7.906h2.332l-.401.983h-6.303l-4.409 13.226h-.073L47.874 10.43h-6.667l8.744 20.184-.437 1.166c-.219.547-.91 2.004-1.093 2.441-.182.4-.437.765-.729 1.057-.291.291-.656.51-1.093.655-.437.146-1.02.22-1.712.22a7.004 7.004 0 01-2.842-.62l-.801 5.064c1.457.51 2.987.729 4.59.729 1.494 0 2.66-.146 3.57-.438a6.2 6.2 0 002.26-1.275 6.252 6.252 0 001.457-2.076 63.63 63.63 0 001.166-2.842l7.578-19.273v15.01h6.157V1.578h-6.157v-.036zm22.077 21.386c.766.182 1.421.4 1.931.656.51.255.765.656.765 1.166 0 .546-.29.91-.874 1.13-.583.218-1.202.29-1.93.29-.948 0-1.75-.182-2.442-.546-.692-.364-1.348-.91-1.93-1.64l-3.717 4.19-.656-.655 1.421-1.603v-7.214c.11.364.255.692.474.947a5.045 5.045 0 001.967 1.749c.802.4 1.64.728 2.514.91.874.256 1.712.438 2.477.62zm21.788 2.66a9.47 9.47 0 01-1.276.109c-.655 0-1.202-.073-1.566-.255-.401-.182-.692-.437-.875-.765a3.65 3.65 0 01-.4-1.166 6.476 6.476 0 01-.073-1.494V15.35h5.428v-4.955h-5.428V4.456h-6.158v5.939h-3.934v1.567c-.802-.693-1.75-1.166-2.806-1.494a13.85 13.85 0 00-4.007-.583 12.19 12.19 0 00-3.06.4 8.243 8.243 0 00-2.697 1.203 5.885 5.885 0 00-1.894 2.113 5.063 5.063 0 00-.438 1.02v-4.226h-6.23v20.002h6.194v-1.53a8.022 8.022 0 002.842 1.42c1.42.401 2.842.583 4.226.583 1.057 0 2.15-.109 3.243-.291 1.093-.219 2.076-.547 2.95-1.057.875-.51 1.604-1.165 2.15-2.003.583-.838.838-1.895.838-3.207 0-1.275-.255-2.258-.765-3.024a5.338 5.338 0 00-1.93-1.785 9.51 9.51 0 00-2.515-.983c-.91-.22-1.712-.401-2.477-.583a12.148 12.148 0 01-1.931-.62c-.51-.218-.802-.583-.765-1.093 0-.62.255-1.02.728-1.275a3.162 3.162 0 011.53-.364c1.495 0 2.697.546 3.608 1.676l3.752-3.716c.219.218.401.437.583.655l-1.166 1.203v.91h3.935l-.036 9.51c0 1.093.218 2.04.583 2.805a4.784 4.784 0 001.53 1.858 6.62 6.62 0 002.295 1.056c.874.22 1.858.328 2.878.328a21.9 21.9 0 002.186-.109 8.793 8.793 0 002.15-.51l-.037-5.137c-.255.255-.655.4-1.165.474z" fill="#fff"/><path d="M76.948 4.82c.037-.29.037-.473.037-.728 0-.984-.365-1.822-1.02-2.514C75.272.886 74.434.521 73.45.521c-.51 0-.948.11-1.385.292a3.6 3.6 0 00-1.166.765 3.444 3.444 0 00-.765 1.13c-.182.437-.291.91-.291 1.384 0 .51.11.947.291 1.384.182.438.437.802.765 1.13.328.328.692.583 1.13.765.328.146.656.219.983.255-.583.62-1.42 1.166-2.696 1.312v.765c0-.037 6.048.51 6.631-4.882zm37.307 9.327h3.352c.911 0 1.566.255 2.004.729.437.51.692 1.165.692 1.967s-.219 1.42-.656 1.931c-.437.474-1.093.729-2.004.729h-3.352v-5.356h-.036zm3.352-3.79h-7.615v20.04h4.263v-7.105h3.352c2.113 0 3.825-.583 5.064-1.786 1.239-1.165 1.858-2.768 1.858-4.7 0-1.93-.619-3.497-1.858-4.663-1.239-1.166-2.951-1.785-5.064-1.785zm18.617 13.226c0 1.13-.292 1.968-.875 2.478-.619.546-1.421.838-2.514.838-1.02 0-1.821-.255-2.404-.838-.583-.547-.838-1.348-.838-2.514v-13.19h-4.263v13.226c0 2.26.692 4.008 2.113 5.247 1.385 1.202 3.206 1.821 5.392 1.821 2.223 0 4.081-.62 5.465-1.821 1.421-1.24 2.15-3.024 2.15-5.283v-13.19h-4.263v13.226h.037zm25.138-5.136c-1.384-.4-2.368-.802-2.951-1.239-.474-.364-.692-.765-.692-1.275 0-.583.218-1.056.656-1.457.473-.401 1.165-.583 2.076-.583.984 0 1.713.255 2.223.728.51.474.728 1.093.728 1.895v.62h4.117c0-.183.037-.693.037-.693.036-1.749-.583-3.242-1.931-4.481-1.312-1.239-3.024-1.858-5.137-1.858-2.004 0-3.717.546-4.992 1.603-1.348 1.093-2.004 2.514-2.004 4.226 0 1.676.62 3.024 1.822 4.044 1.13.947 2.769 1.749 4.846 2.296 1.311.364 2.186.765 2.659 1.202.401.364.62.838.62 1.457 0 .583-.219 1.057-.656 1.385-.51.364-1.239.582-2.186.582-1.057 0-1.895-.255-2.55-.728-.583-.437-.875-1.13-.875-2.04v-.62h-4.117l-.036.692c-.037 2.004.728 3.644 2.295 4.81 1.494 1.13 3.279 1.676 5.283 1.676 2.077 0 3.789-.51 5.064-1.53 1.348-1.057 2.04-2.478 2.04-4.227 0-1.64-.582-3.024-1.675-4.117-1.093-1.02-2.66-1.822-4.664-2.368z" fill="#fff"/><path d="M154.769 29.558c-1.056-.801-1.785-1.785-2.149-2.95h-5.611v-16.25h-4.263v20.038h13.371c-.474-.218-.911-.51-1.348-.838zm18.361-2.914V21.98h7.797v-3.789h-7.797v-4.044h8.962v-3.79h-13.225v20.076h13.298v-3.79h-9.035z" fill="#fff"/></svg>