<svg width="51" height="42" fill="none" xmlns="http://www.w3.org/2000/svg"><path d="M22.913 13.625c0 6.362-2.428 12.26-7.287 17.697-4.857 5.436-9.021 8.848-12.491 10.236L.532 37.915c3.47-1.85 6.42-4.511 8.849-7.981 2.313-3.47 3.643-7.056 3.99-10.757-.925.578-2.371.867-4.337.867-2.082 0-3.875-.925-5.379-2.776C2.151 15.534 1.4 13.22 1.4 10.328c0-2.891 1.098-5.262 3.296-7.113C6.778 1.48 9.381.613 12.504.613s5.667 1.098 7.633 3.296c1.851 2.198 2.776 5.436 2.776 9.716zM40.438.613c3.007 0 5.494 1.619 7.46 4.858 1.967 3.238 2.95 6.824 2.95 10.756 0 3.933-.81 7.403-2.43 10.41-1.619 3.123-3.643 5.668-6.072 7.634-4.626 3.702-8.385 6.13-11.277 7.287l-2.603-3.643c3.47-1.85 6.42-4.511 8.849-7.981 2.313-3.47 3.643-7.056 3.99-10.757-.925.578-2.37.867-4.337.867-2.082 0-3.875-.925-5.379-2.776-1.503-1.735-2.255-4.048-2.255-6.94 0-2.891 1.099-5.262 3.296-7.113C34.711 1.48 37.314.613 40.437.613z" fill="#fff"/></svg>