<svg width="101" height="81" fill="none" xmlns="http://www.w3.org/2000/svg"><path d="M88.504 64.647l.188-.244a21.877 21.877 0 004.562-13.362l-4.75 13.606zm0 0l.218.217m-.218-.218l.218.218m0 0l10.845 10.847.002.003a2.484 2.484 0 01-1.77 4.199 2.485 2.485 0 01-1.743-.686l-.002-.003-10.846-10.847-.217-.218-.244.189a21.85 21.85 0 01-31.725-5.446l-.115-.179-.212.02a12.644 12.644 0 111.12-25.022l.208.039.13-.167a22.09 22.09 0 014.785-4.519l.15-.104V9.007m29.634 55.857l-17.336-35.69m0 0h0c-2.298 0-4.58.36-6.764 1.073l-.459.15V9.006v0A8.31 8.31 0 0054.878.75h0c-7.25.848-13.212 2.29-19.445 3.798a423.63 423.63 0 01-6.888 1.624h0c-4.175.937-7.376 4.076-7.376 8.262v32.363l-.545-.365a12.58 12.58 0 00-7.024-2.133h0A12.65 12.65 0 00.955 56.945 12.65 12.65 0 0013.6 69.588a12.65 12.65 0 0012.64-12.297V14.434v0a3.237 3.237 0 012.848-3.214L55.44 5.793l.015-.003.015-.001a3.237 3.237 0 013.617 3.219m12.298 20.167c12.057 0 21.868 9.81 21.868 21.866L71.386 29.175zM59.088 9.008h-.35m.35 0v0h-.35m0 0a2.888 2.888 0 00-3.226-2.872l3.226 26.65V9.008zM6.03 56.943v0a7.573 7.573 0 007.569 7.569v-.35.35a7.573 7.573 0 007.569-7.569v0a7.573 7.573 0 00-7.569-7.57h0a7.572 7.572 0 00-7.57 7.57zm44.974-13.83l.211-.542-.578.068a7.572 7.572 0 00-6.688 7.515h.35-.35a7.574 7.574 0 006.022 7.412l.57.12-.162-.56a21.875 21.875 0 01.625-14.013zm10.99 21.978a16.899 16.899 0 009.389 2.848l16.549-16.897h.35s0 0 0 0a16.898 16.898 0 10-26.288 14.05z" fill="#000" stroke="#fff" stroke-width=".7"/><circle cx="20" cy="28.738" r="10.5" fill="url(#paint0_linear_204_2)"/><defs><linearGradient id="paint0_linear_204_2" x1="11.485" y1="14.161" x2="33.527" y2="15.548" gradientUnits="userSpaceOnUse"><stop stop-color="#0085FF"/><stop offset="1" stop-color="#591FFF"/></linearGradient></defs></svg>