<svg width="71" height="96" fill="none" xmlns="http://www.w3.org/2000/svg"><path d="M.934 72.512v9.04a2.148 2.148 0 002.148 2.147h27.765a2.149 2.149 0 000-4.296H5.23v-6.875a9.701 9.701 0 015.852-8.91l19.807-8.593a2.148 2.148 0 001.298-1.951v-6.952c0-.758-.245-1.496-.696-2.105a18.69 18.69 0 01-3.197-8.594 2.15 2.15 0 00-.902-1.512 7.217 7.217 0 01-3.093-5.903c-.005-.429.17-.84.481-1.134.314-.3.735-.46 1.168-.447a2.15 2.15 0 002.235-2.122l.069-6.557c-.004-1.47.27-2.929.807-4.297 1.624-4.081 5.766-8.378 11-8.378h1.365v2.363a2.148 2.148 0 001.934 2.14 11.872 11.872 0 018.112 5.113 6.692 6.692 0 011.254 3.909v5.655a2.149 2.149 0 002.148 2.148c.424.003.828.173 1.126.472.298.295.462.699.456 1.118a7.236 7.236 0 01-2.982 5.826 2.147 2.147 0 00-.86 1.495 18.573 18.573 0 01-3.325 8.842 2.148 2.148 0 103.437 2.578 22.548 22.548 0 004.039-10.063 11.54 11.54 0 003.996-8.696 5.826 5.826 0 00-1.719-4.15 5.924 5.924 0 00-2.02-1.323v-3.91a10.87 10.87 0 00-2.079-6.437 16.685 16.685 0 00-9.22-6.513V2.925A2.15 2.15 0 0043.573.777h-3.515c-7.218 0-12.83 5.714-14.994 11.016a15.95 15.95 0 00-1.118 5.878l-.051 4.777a5.92 5.92 0 00-2.097 1.306 5.818 5.818 0 00-1.796 4.228 11.515 11.515 0 004.15 8.834 22.347 22.347 0 003.738 9.555v5.285l-18.509 8A13.994 13.994 0 00.934 72.512z" fill="#000"/><circle cx="11.434" cy="59.879" r="10.5" fill="url(#paint0_linear_131_1489)"/><path d="M54.869 54.252c-1.753.032-3.222.64-4.405 1.826-1.184 1.185-1.793 2.653-1.826 4.405v12.463c.032 1.753.64 3.221 1.826 4.405 1.184 1.184 2.653 1.793 4.405 1.826 1.753-.032 3.222-.64 4.405-1.826 1.184-1.185 1.793-2.653 1.826-4.405V60.483c-.032-1.753-.64-3.221-1.826-4.405-1.184-1.184-2.653-1.793-4.405-1.826zm0-3.116c2.662.066 4.869.975 6.62 2.727 1.753 1.752 2.661 3.959 2.727 6.62v12.463c-.066 2.662-.974 4.868-2.726 6.62-1.752 1.752-3.96 2.661-6.621 2.727-2.662-.066-4.869-.975-6.62-2.727-1.753-1.752-2.662-3.959-2.727-6.62V60.483c.066-2.661.974-4.868 2.726-6.62 1.752-1.752 3.96-2.661 6.621-2.727zM53.311 91.64v-3.115c-3.96-.098-7.262-1.47-9.906-4.115-2.644-2.645-4.015-5.947-4.114-9.905v-1.558c0-.455.146-.828.438-1.12.291-.292.665-.438 1.12-.438.455 0 .828.146 1.12.438.292.292.438.665.438 1.12v1.558c.065 3.083 1.128 5.655 3.189 7.715 2.06 2.06 4.632 3.124 7.715 3.19h3.116c3.083-.066 5.655-1.13 7.715-3.19 2.061-2.06 3.124-4.632 3.19-7.715v-1.558c0-.455.145-.828.437-1.12.292-.292.665-.438 1.12-.438.455 0 .829.146 1.12.438.292.292.438.665.438 1.12v1.558c-.097 3.96-1.469 7.261-4.114 9.905-2.645 2.645-5.947 4.016-9.906 4.115v3.115h3.116c.454 0 .828.146 1.12.438.291.292.437.665.437 1.12 0 .455-.146.828-.437 1.12-.292.292-.666.438-1.12.438h-9.347c-.455 0-.828-.146-1.12-.438-.292-.291-.438-.665-.438-1.12 0-.455.146-.828.438-1.12.291-.292.665-.438 1.12-.438h3.115z" fill="#000" stroke="#000"/><defs><linearGradient id="paint0_linear_131_1489" x1="2.919" y1="45.302" x2="24.96" y2="46.689" gradientUnits="userSpaceOnUse"><stop stop-color="#0085FF"/><stop offset="1" stop-color="#591FFF"/></linearGradient></defs></svg>