<svg width="68" height="83" viewBox="0 0 68 83" fill="none" xmlns="http://www.w3.org/2000/svg">
<path d="M66.3979 33.4623C66.4096 26.8091 64.3742 20.3133 60.5679 14.8563C60.5389 14.8135 60.5125 14.7782 60.4848 14.7442L60.4671 14.7203C58.3352 11.689 55.7015 9.04384 52.6796 6.89872L52.6594 6.8836C52.5954 6.83237 52.5286 6.78484 52.4591 6.74125L52.439 6.72865C52.3495 6.66567 52.2588 6.60268 52.1681 6.54348L52.0107 6.4364C51.8154 6.31043 51.6176 6.17438 51.4199 6.04715L51.3002 5.97282L51.217 5.91992L50.8391 5.68687C50.7358 5.62388 50.6325 5.5609 50.528 5.49917L50.2685 5.34549C50.1425 5.27494 50.0279 5.2044 49.9057 5.13637L49.7671 5.05827C49.4534 4.88191 49.1373 4.71311 48.84 4.55439L48.8236 4.54557C48.6586 4.45991 48.4986 4.37929 48.3399 4.29992L48.229 4.2445C48.0652 4.16387 47.9027 4.08577 47.739 4.00767L47.7087 3.99381C47.1885 3.74187 46.6506 3.5126 46.1114 3.29215L46.027 3.25814L45.5231 3.0591L45.4249 3.02257C44.921 2.82858 44.3944 2.64466 43.8742 2.47711L43.7079 2.42295L43.2733 2.28816L43.0302 2.22139C42.8899 2.18024 42.7501 2.13825 42.6107 2.09542L42.4053 2.03999L42.3172 2.01606C42.1114 1.96063 41.9048 1.90688 41.6974 1.85482H41.6722C41.5462 1.82458 41.4278 1.79309 41.3043 1.76412L41.0247 1.70113L40.9844 1.69231C40.8458 1.66082 40.706 1.63059 40.5674 1.60161H40.5435L40.2789 1.54619C40.0938 1.50965 39.9086 1.47438 39.7221 1.44037L39.5697 1.4114C39.3379 1.37108 39.0986 1.33077 38.8366 1.28542L38.6753 1.26149C38.4738 1.23126 38.2722 1.20354 38.0707 1.17709L37.8918 1.15441C37.6675 1.1267 37.4433 1.10151 37.2178 1.07757L37.1385 1.06875C36.6245 1.01711 36.0942 0.976794 35.56 0.94908L35.4341 0.942782C35.2061 0.931444 34.9768 0.922626 34.7475 0.916328H34.6342C34.3406 0.916328 34.0937 0.90625 33.8607 0.90625C33.8493 0.90625 33.8317 0.90625 33.8204 0.90625H33.8103C33.576 0.90625 33.3291 0.90625 33.0356 0.916328H32.9222C32.6929 0.922626 32.4637 0.931444 32.2356 0.942782L32.1097 0.94908C31.5756 0.976794 31.0452 1.01711 30.5313 1.06875L30.4506 1.07757C30.2264 1.10151 30.0022 1.1267 29.7792 1.15441L29.5991 1.17709C29.3963 1.20354 29.1947 1.23126 28.9944 1.26149L28.8332 1.28542C28.5711 1.32574 28.3293 1.36605 28.1 1.4114L27.9476 1.44037C27.7611 1.47438 27.576 1.50965 27.3908 1.54619L27.1187 1.60287H27.1023C26.9625 1.63185 26.8239 1.66208 26.6853 1.69357L26.6551 1.69987L26.3654 1.76538L25.9711 1.86237C25.7637 1.91444 25.5579 1.96777 25.3538 2.02236L25.2656 2.04503C25.1964 2.06393 25.1271 2.08156 25.0591 2.10172C24.918 2.14077 24.7794 2.18108 24.6396 2.22769L24.399 2.29824L23.9581 2.43554L23.7905 2.48971C23.2715 2.65725 22.7487 2.84117 22.2398 3.03517L22.1428 3.0717C21.9727 3.13721 21.8052 3.19767 21.6389 3.272L21.5558 3.30475C21.0166 3.5252 20.4787 3.76076 19.9585 4.00641L19.927 4.02153C19.7645 4.09837 19.602 4.17647 19.4395 4.25709L19.3261 4.31252C19.1674 4.39188 19.0086 4.4725 18.8512 4.55439L18.826 4.56698C18.5236 4.72445 18.2138 4.89199 17.9013 5.07087L17.7603 5.15023C17.6343 5.21826 17.5197 5.2888 17.3987 5.35934L17.1266 5.49665C17.0221 5.55838 16.9188 5.62262 16.8155 5.68435C16.6895 5.76077 16.5635 5.83888 16.4376 5.91866L16.3569 5.96905C16.3166 5.99298 16.2763 6.01817 16.231 6.04463C16.0307 6.1706 15.8342 6.29657 15.6376 6.43388L15.4877 6.53592L15.2106 6.72614L15.1904 6.73873C15.1247 6.78344 15.0612 6.83137 15.0002 6.88234L14.9801 6.89746C11.9581 9.04258 9.32444 11.6877 7.19251 14.719L7.17487 14.743C7.14716 14.7774 7.1207 14.8127 7.09551 14.8488C3.28697 20.3077 1.25024 26.8062 1.26177 33.4623V55.5073C1.26174 56.3566 1.43849 57.1966 1.78077 57.9739C2.07964 58.669 2.50703 59.3016 3.04049 59.8383L7.44949 64.2473C8.06534 64.8648 8.80749 65.3418 9.62502 65.6455C10.5989 66.0055 11.6477 66.1147 12.6748 65.963C13.174 65.8925 13.6624 65.7596 14.1285 65.5674C15.2399 65.0968 16.1889 64.3106 16.8581 63.3062C17.5273 62.3018 17.8874 61.1233 17.8938 59.9164V37.8625C17.8842 36.3291 17.2998 34.855 16.256 33.7315C15.2123 32.608 13.7852 31.9168 12.2566 31.7945C12.0387 31.7767 11.82 31.7708 11.6015 31.7768C10.0423 31.8153 8.55727 32.4501 7.45201 33.5505L5.5322 35.4779C5.46173 35.5484 5.37191 35.5965 5.27412 35.616C5.17632 35.6354 5.07494 35.6255 4.98282 35.5873C4.8907 35.5491 4.81197 35.4845 4.75661 35.4015C4.70125 35.3186 4.67174 35.2211 4.67182 35.1214V33.4623C4.67046 31.0251 4.96959 28.5969 5.56244 26.2328C6.42289 22.8529 7.88573 19.6558 9.88074 16.795C9.93601 16.719 9.98488 16.6385 10.0269 16.5544C10.038 16.5313 10.0515 16.5093 10.0672 16.4889C11.9071 13.9048 14.1592 11.6407 16.7336 9.78724C16.7548 9.77176 16.7771 9.75787 16.8004 9.74567C16.9201 9.685 17.034 9.61331 17.1405 9.53152L17.1594 9.51766C20.9032 6.89805 25.2162 5.20632 29.7427 4.5821L29.8686 4.56446L30.2919 4.5103L30.5791 4.4788H30.6245L30.9117 4.44731C31.1195 4.42715 31.3287 4.40826 31.5415 4.39314C31.5768 4.39314 31.6121 4.39314 31.6486 4.38558H31.7141L32.2331 4.35283L32.4422 4.34275C32.6123 4.3352 32.7836 4.3289 32.9537 4.32386H33.1389C33.5961 4.31378 34.0597 4.31252 34.5183 4.32386H34.7022C34.8735 4.32386 35.0448 4.3352 35.2149 4.34275L35.424 4.35283L35.943 4.38558H36.0085C36.045 4.38558 36.0803 4.38558 36.1156 4.39314C36.3247 4.40826 36.5338 4.42715 36.7454 4.44731L37.0326 4.4788H37.0793L37.3652 4.5103L37.7885 4.56446L37.9144 4.5821C42.4412 5.20655 46.7547 6.89825 50.499 9.51766L50.5179 9.53152C50.6241 9.61302 50.7376 9.6847 50.8568 9.74567C50.8803 9.75728 50.9027 9.77121 50.9235 9.78724C53.4986 11.6404 55.7512 13.9045 57.5912 16.4889C57.6064 16.5096 57.6199 16.5316 57.6315 16.5544C57.6725 16.6364 57.7197 16.7151 57.7726 16.79C59.7708 19.6531 61.235 22.8539 62.0947 26.2379C62.6885 28.6001 62.9885 31.0266 62.9878 33.4623V35.1151C62.9879 35.2148 62.9584 35.3123 62.903 35.3952C62.8477 35.4782 62.7689 35.5428 62.6768 35.581C62.5847 35.6192 62.4833 35.6291 62.3855 35.6097C62.2877 35.5902 62.1979 35.5421 62.1274 35.4716L60.2076 33.5505C59.1021 32.4506 57.6172 31.8158 56.0581 31.7768H55.8893C55.7293 31.7768 55.5656 31.7844 55.4031 31.797C53.8745 31.9193 52.4473 32.6105 51.4036 33.734C50.3599 34.8575 49.7755 36.3316 49.7659 37.865V59.9164C49.7583 61.3853 50.2832 62.8073 51.2435 63.919C52.2037 65.0307 53.5342 65.7568 54.9886 65.963C56.0163 66.113 57.0652 66.0017 58.0384 65.6392C58.8555 65.3367 59.597 64.86 60.2114 64.2422L64.6204 59.8332C65.1544 59.2974 65.5818 58.6652 65.8801 57.9701C66.2231 57.1921 66.4003 56.3513 66.4004 55.5011L66.3979 33.4623ZM4.67182 42.2287C4.68362 41.5298 4.96688 40.863 5.46166 40.3693L9.87066 35.9603C10.3571 35.4691 11.0138 35.1836 11.7048 35.1629C12.4049 35.1418 13.0866 35.3898 13.6095 35.8558C13.891 36.11 14.1152 36.4212 14.2672 36.7687C14.4193 37.1162 14.4957 37.4921 14.4913 37.8713V59.9164C14.5095 60.527 14.3179 61.1254 13.9484 61.6119C13.6467 61.9785 13.2565 62.2621 12.8146 62.4358C12.4701 62.5832 12.0997 62.6612 11.725 62.6651H11.7174C11.0346 62.6651 10.4123 62.3804 9.86814 61.8349L5.45914 57.4259C5.20644 57.1744 5.00599 56.8755 4.86935 56.5462C4.73271 56.2169 4.66258 55.8638 4.663 55.5073L4.67182 42.2287ZM62.198 57.4234L57.789 61.8324C57.2435 62.3766 56.6225 62.6562 55.9422 62.6613H55.9347C55.559 62.6578 55.1878 62.5798 54.8425 62.432C54.4038 62.2582 54.0164 61.9761 53.7163 61.6119C53.3449 61.1261 53.1511 60.5277 53.1671 59.9164V37.8713C53.1626 37.492 53.2389 37.1161 53.3909 36.7686C53.543 36.4211 53.7672 36.1099 54.0489 35.8558C54.5716 35.3923 55.2515 35.1458 55.9498 35.1667C56.6417 35.187 57.2992 35.4725 57.7865 35.9641L62.1955 40.3731C62.6881 40.8636 62.9712 41.5261 62.9853 42.2211L62.9966 55.5073C62.9966 55.8636 62.926 56.2164 62.7889 56.5452C62.6519 56.8741 62.451 57.1725 62.198 57.4234Z" fill="black"/>
<path d="M25.6662 45.0908C25.6165 45.0696 25.5656 45.0511 25.5138 45.0353L25.4886 45.029C25.4448 45.0152 25.4002 45.0038 25.3551 44.995L25.3072 44.9875C25.2682 44.9799 25.2291 44.9736 25.1888 44.9698H24.8512C24.8089 44.9735 24.7669 44.9794 24.7252 44.9875H24.6849C24.2934 45.0618 23.9405 45.2718 23.6885 45.5805C23.4364 45.8893 23.3013 46.277 23.3068 46.6755V51.0983C23.307 51.1991 23.3146 51.2997 23.3295 51.3994C23.4554 52.4714 24.3612 52.8972 25.1535 52.8418C25.8917 52.7927 26.7433 52.3077 26.7168 51.1097V46.6893C26.7229 46.3481 26.6259 46.013 26.4385 45.7277C26.251 45.4425 25.9819 45.2205 25.6662 45.0908Z" fill="black"/>
<path d="M34.158 40.5822H34.1252C34.0849 40.5759 34.0421 40.5696 33.9993 40.5659H33.8708C33.8418 40.5659 33.8179 40.5659 33.7927 40.5659H33.6679C33.6213 40.5659 33.5798 40.5772 33.542 40.5848H33.518C33.1258 40.6584 32.7719 40.8678 32.5185 41.1762C32.2652 41.4846 32.1285 41.8724 32.1324 42.2715V55.5073C32.1214 56.0339 32.268 56.4538 32.572 56.7671C32.739 56.9285 32.9363 57.0553 33.1525 57.1402C33.3686 57.2252 33.5995 57.2666 33.8317 57.2621H33.838C34.0702 57.2666 34.3011 57.2252 34.5173 57.1402C34.7334 57.0553 34.9307 56.9285 35.0977 56.7671C35.4013 56.4572 35.5487 56.0389 35.5374 55.5237V42.2715C35.5419 41.8729 35.4062 41.4854 35.1541 41.1766C34.902 40.8679 34.5494 40.6575 34.158 40.5822Z" fill="black"/>
<path d="M42.9785 44.9912L42.9357 44.9837C42.8979 44.9837 42.8576 44.9711 42.816 44.9673H42.4784C42.4381 44.9673 42.3978 44.9774 42.3587 44.9849L42.3121 44.9925C42.2668 45.0013 42.2227 45.0139 42.1786 45.0252L42.1546 45.0328C42.1038 45.0478 42.0537 45.0655 42.0047 45.0857H41.9934C41.6806 45.2156 41.414 45.4363 41.2278 45.7192C41.0417 46.0021 40.9446 46.3343 40.9491 46.673V51.0983C40.9226 52.3077 41.7742 52.7927 42.5124 52.8418C43.3048 52.8972 44.213 52.4727 44.3352 51.412C44.3501 51.3081 44.3581 51.2033 44.3592 51.0983V46.6893C44.3665 46.2889 44.2319 45.8987 43.9792 45.588C43.7265 45.2772 43.372 45.0658 42.9785 44.9912Z" fill="black"/>
<path d="M40.0207 77.3231C39.5697 77.3339 39.1328 77.1652 38.8062 76.8539C38.4796 76.5427 38.29 76.1144 38.2791 75.6634C38.2683 75.2124 38.437 74.7755 38.7483 74.4489C39.0595 74.1223 39.4878 73.9327 39.9388 73.9218C50.1501 73.418 54.1912 68.1083 55.7835 63.7421C55.9445 63.3273 56.2618 62.9921 56.6671 62.8085C57.0724 62.6249 57.5336 62.6074 57.9516 62.7599C58.3696 62.9124 58.7113 63.2226 58.9032 63.6241C59.0951 64.0256 59.122 64.4862 58.9781 64.9073C55.2695 75.0833 45.5622 77.0485 40.1051 77.3218L40.0207 77.3231Z" fill="black"/>
<path d="M33.5609 81.6993C32.2625 81.6996 30.9931 81.3148 29.9134 80.5936C28.8337 79.8724 27.9922 78.8471 27.4952 77.6476C26.9982 76.4481 26.8681 75.1281 27.1213 73.8546C27.3746 72.5811 27.9998 71.4114 28.9179 70.4932C29.836 69.5751 31.0058 68.9499 32.2793 68.6967C33.5528 68.4434 34.8727 68.5735 36.0723 69.0705C37.2718 69.5675 38.297 70.4091 39.0182 71.4888C39.7394 72.5685 40.1242 73.8378 40.124 75.1362C40.122 76.8762 39.4299 78.5444 38.1995 79.7748C36.9691 81.0052 35.3009 81.6973 33.5609 81.6993ZM33.5609 71.9731C32.9352 71.9728 32.3235 72.1581 31.8032 72.5055C31.2828 72.853 30.8772 73.3469 30.6376 73.9249C30.398 74.5028 30.3352 75.1389 30.4571 75.7525C30.579 76.3662 30.8802 76.93 31.3225 77.3725C31.7648 77.8149 32.3284 78.1163 32.942 78.2385C33.5557 78.3606 34.1917 78.2981 34.7698 78.0587C35.3479 77.8193 35.842 77.4139 36.1896 76.8937C36.5372 76.3735 36.7228 75.7619 36.7228 75.1362C36.7221 74.2977 36.3888 73.4937 35.796 72.9007C35.2032 72.3077 34.3994 71.9741 33.5609 71.9731Z" fill="black"/>
<path d="M66.3979 33.4623C66.4096 26.8091 64.3742 20.3133 60.5679 14.8563C60.5389 14.8135 60.5125 14.7782 60.4848 14.7442L60.4671 14.7203C58.3352 11.689 55.7015 9.04384 52.6796 6.89872L52.6594 6.8836C52.5954 6.83237 52.5286 6.78484 52.4591 6.74125L52.439 6.72865C52.3495 6.66567 52.2588 6.60268 52.1681 6.54348L52.0107 6.4364C51.8154 6.31043 51.6176 6.17438 51.4199 6.04715L51.3002 5.97282L51.217 5.91992L50.8391 5.68687C50.7358 5.62388 50.6325 5.5609 50.528 5.49917L50.2685 5.34549C50.1425 5.27494 50.0279 5.2044 49.9057 5.13637L49.7671 5.05827C49.4534 4.88191 49.1373 4.71311 48.84 4.55439L48.8236 4.54557C48.6586 4.45991 48.4986 4.37929 48.3399 4.29992L48.229 4.2445C48.0652 4.16387 47.9027 4.08577 47.739 4.00767L47.7087 3.99381C47.1885 3.74187 46.6506 3.5126 46.1114 3.29215L46.027 3.25814L45.5231 3.0591L45.4249 3.02257C44.921 2.82858 44.3944 2.64466 43.8742 2.47711L43.7079 2.42295L43.2733 2.28816L43.0302 2.22139C42.8899 2.18024 42.7501 2.13825 42.6107 2.09542L42.4053 2.03999L42.3172 2.01606C42.1114 1.96063 41.9048 1.90688 41.6974 1.85482H41.6722C41.5462 1.82458 41.4278 1.79309 41.3043 1.76412L41.0247 1.70113L40.9844 1.69231C40.8458 1.66082 40.706 1.63059 40.5674 1.60161H40.5435L40.2789 1.54619C40.0938 1.50965 39.9086 1.47438 39.7221 1.44037L39.5697 1.4114C39.3379 1.37108 39.0986 1.33077 38.8366 1.28542L38.6753 1.26149C38.4738 1.23126 38.2722 1.20354 38.0707 1.17709L37.8918 1.15441C37.6675 1.1267 37.4433 1.10151 37.2178 1.07757L37.1385 1.06875C36.6245 1.01711 36.0942 0.976794 35.56 0.94908L35.4341 0.942782C35.2061 0.931444 34.9768 0.922626 34.7475 0.916328H34.6342C34.3406 0.916328 34.0937 0.90625 33.8607 0.90625C33.8493 0.90625 33.8317 0.90625 33.8204 0.90625H33.8103C33.576 0.90625 33.3291 0.90625 33.0356 0.916328H32.9222C32.6929 0.922626 32.4637 0.931444 32.2356 0.942782L32.1097 0.94908C31.5756 0.976794 31.0452 1.01711 30.5313 1.06875L30.4506 1.07757C30.2264 1.10151 30.0022 1.1267 29.7792 1.15441L29.5991 1.17709C29.3963 1.20354 29.1947 1.23126 28.9944 1.26149L28.8332 1.28542C28.5711 1.32574 28.3293 1.36605 28.1 1.4114L27.9476 1.44037C27.7611 1.47438 27.576 1.50965 27.3908 1.54619L27.1187 1.60287H27.1023C26.9625 1.63185 26.8239 1.66208 26.6853 1.69357L26.6551 1.69987L26.3654 1.76538L25.9711 1.86237C25.7637 1.91444 25.5579 1.96777 25.3538 2.02236L25.2656 2.04503C25.1964 2.06393 25.1271 2.08156 25.0591 2.10172C24.918 2.14077 24.7794 2.18108 24.6396 2.22769L24.399 2.29824L23.9581 2.43554L23.7905 2.48971C23.2715 2.65725 22.7487 2.84117 22.2398 3.03517L22.1428 3.0717C21.9727 3.13721 21.8052 3.19767 21.6389 3.272L21.5558 3.30475C21.0166 3.5252 20.4787 3.76076 19.9585 4.00641L19.927 4.02153C19.7645 4.09837 19.602 4.17647 19.4395 4.25709L19.3261 4.31252C19.1674 4.39188 19.0086 4.4725 18.8512 4.55439L18.826 4.56698C18.5236 4.72445 18.2138 4.89199 17.9013 5.07087L17.7603 5.15023C17.6343 5.21826 17.5197 5.2888 17.3987 5.35934L17.1266 5.49665C17.0221 5.55838 16.9188 5.62262 16.8155 5.68435C16.6895 5.76077 16.5635 5.83888 16.4376 5.91866L16.3569 5.96905C16.3166 5.99298 16.2763 6.01817 16.231 6.04463C16.0307 6.1706 15.8342 6.29657 15.6376 6.43388L15.4877 6.53592L15.2106 6.72614L15.1904 6.73873C15.1247 6.78344 15.0612 6.83137 15.0002 6.88234L14.9801 6.89746C11.9581 9.04258 9.32444 11.6877 7.19251 14.719L7.17487 14.743C7.14716 14.7774 7.1207 14.8127 7.09551 14.8488C3.28697 20.3077 1.25024 26.8062 1.26177 33.4623V55.5073C1.26174 56.3566 1.43849 57.1966 1.78077 57.9739C2.07964 58.669 2.50703 59.3016 3.04049 59.8383L7.44949 64.2473C8.06534 64.8648 8.80749 65.3418 9.62502 65.6455C10.5989 66.0055 11.6477 66.1147 12.6748 65.963C13.174 65.8925 13.6624 65.7596 14.1285 65.5674C15.2399 65.0968 16.1889 64.3106 16.8581 63.3062C17.5273 62.3018 17.8874 61.1233 17.8938 59.9164V37.8625C17.8842 36.3291 17.2998 34.855 16.256 33.7315C15.2123 32.608 13.7852 31.9168 12.2566 31.7945C12.0387 31.7767 11.82 31.7708 11.6015 31.7768C10.0423 31.8153 8.55727 32.4501 7.45201 33.5505L5.5322 35.4779C5.46173 35.5484 5.37191 35.5965 5.27412 35.616C5.17632 35.6354 5.07494 35.6255 4.98282 35.5873C4.8907 35.5491 4.81197 35.4845 4.75661 35.4015C4.70125 35.3186 4.67174 35.2211 4.67182 35.1214V33.4623C4.67046 31.0251 4.96959 28.5969 5.56244 26.2328C6.42289 22.8529 7.88573 19.6558 9.88074 16.795C9.93601 16.719 9.98488 16.6385 10.0269 16.5544C10.038 16.5313 10.0515 16.5093 10.0672 16.4889C11.9071 13.9048 14.1592 11.6407 16.7336 9.78724C16.7548 9.77176 16.7771 9.75787 16.8004 9.74567C16.9201 9.685 17.034 9.61331 17.1405 9.53152L17.1594 9.51766C20.9032 6.89805 25.2162 5.20632 29.7427 4.5821L29.8686 4.56446L30.2919 4.5103L30.5791 4.4788H30.6245L30.9117 4.44731C31.1195 4.42715 31.3287 4.40826 31.5415 4.39314C31.5768 4.39314 31.6121 4.39314 31.6486 4.38558H31.7141L32.2331 4.35283L32.4422 4.34275C32.6123 4.3352 32.7836 4.3289 32.9537 4.32386H33.1389C33.5961 4.31378 34.0597 4.31252 34.5183 4.32386H34.7022C34.8735 4.32386 35.0448 4.3352 35.2149 4.34275L35.424 4.35283L35.943 4.38558H36.0085C36.045 4.38558 36.0803 4.38558 36.1156 4.39314C36.3247 4.40826 36.5338 4.42715 36.7454 4.44731L37.0326 4.4788H37.0793L37.3652 4.5103L37.7885 4.56446L37.9144 4.5821C42.4412 5.20655 46.7547 6.89825 50.499 9.51766L50.5179 9.53152C50.6241 9.61302 50.7376 9.6847 50.8568 9.74567C50.8803 9.75728 50.9027 9.77121 50.9235 9.78724C53.4986 11.6404 55.7512 13.9045 57.5912 16.4889C57.6064 16.5096 57.6199 16.5316 57.6315 16.5544C57.6725 16.6364 57.7197 16.7151 57.7726 16.79C59.7708 19.6531 61.235 22.8539 62.0947 26.2379C62.6885 28.6001 62.9885 31.0266 62.9878 33.4623V35.1151C62.9879 35.2148 62.9584 35.3123 62.903 35.3952C62.8477 35.4782 62.7689 35.5428 62.6768 35.581C62.5847 35.6192 62.4833 35.6291 62.3855 35.6097C62.2877 35.5902 62.1979 35.5421 62.1274 35.4716L60.2076 33.5505C59.1021 32.4506 57.6172 31.8158 56.0581 31.7768H55.8893C55.7293 31.7768 55.5656 31.7844 55.4031 31.797C53.8745 31.9193 52.4473 32.6105 51.4036 33.734C50.3599 34.8575 49.7755 36.3316 49.7659 37.865V59.9164C49.7583 61.3853 50.2832 62.8073 51.2435 63.919C52.2037 65.0307 53.5342 65.7568 54.9886 65.963C56.0163 66.113 57.0652 66.0017 58.0384 65.6392C58.8555 65.3367 59.597 64.86 60.2114 64.2422L64.6204 59.8332C65.1544 59.2974 65.5818 58.6652 65.8801 57.9701C66.2231 57.1921 66.4003 56.3513 66.4004 55.5011L66.3979 33.4623ZM4.67182 42.2287C4.68362 41.5298 4.96688 40.863 5.46166 40.3693L9.87066 35.9603C10.3571 35.4691 11.0138 35.1836 11.7048 35.1629C12.4049 35.1418 13.0866 35.3898 13.6095 35.8558C13.891 36.11 14.1152 36.4212 14.2672 36.7687C14.4193 37.1162 14.4957 37.4921 14.4913 37.8713V59.9164C14.5095 60.527 14.3179 61.1254 13.9484 61.6119C13.6467 61.9785 13.2565 62.2621 12.8146 62.4358C12.4701 62.5832 12.0997 62.6612 11.725 62.6651H11.7174C11.0346 62.6651 10.4123 62.3804 9.86814 61.8349L5.45914 57.4259C5.20644 57.1744 5.00599 56.8755 4.86935 56.5462C4.73271 56.2169 4.66258 55.8638 4.663 55.5073L4.67182 42.2287ZM62.198 57.4234L57.789 61.8324C57.2435 62.3766 56.6225 62.6562 55.9422 62.6613H55.9347C55.559 62.6578 55.1878 62.5798 54.8425 62.432C54.4038 62.2582 54.0164 61.9761 53.7163 61.6119C53.3449 61.1261 53.1511 60.5277 53.1671 59.9164V37.8713C53.1626 37.492 53.2389 37.1161 53.3909 36.7686C53.543 36.4211 53.7672 36.1099 54.0489 35.8558C54.5716 35.3923 55.2515 35.1458 55.9498 35.1667C56.6417 35.187 57.2992 35.4725 57.7865 35.9641L62.1955 40.3731C62.6881 40.8636 62.9712 41.5261 62.9853 42.2211L62.9966 55.5073C62.9966 55.8636 62.926 56.2164 62.7889 56.5452C62.6519 56.8741 62.451 57.1725 62.198 57.4234Z" stroke="black" stroke-width="0.8"/>
<path d="M25.6662 45.0908C25.6165 45.0696 25.5656 45.0511 25.5138 45.0353L25.4886 45.029C25.4448 45.0152 25.4002 45.0038 25.3551 44.995L25.3072 44.9875C25.2682 44.9799 25.2291 44.9736 25.1888 44.9698H24.8512C24.8089 44.9735 24.7669 44.9794 24.7252 44.9875H24.6849C24.2934 45.0618 23.9405 45.2718 23.6885 45.5805C23.4364 45.8893 23.3013 46.277 23.3068 46.6755V51.0983C23.307 51.1991 23.3146 51.2997 23.3295 51.3994C23.4554 52.4714 24.3612 52.8972 25.1535 52.8418C25.8917 52.7927 26.7433 52.3077 26.7168 51.1097V46.6893C26.7229 46.3481 26.6259 46.013 26.4385 45.7277C26.251 45.4425 25.9819 45.2205 25.6662 45.0908Z" stroke="black" stroke-width="0.8"/>
<path d="M34.158 40.5822H34.1252C34.0849 40.5759 34.0421 40.5696 33.9993 40.5659H33.8708C33.8418 40.5659 33.8179 40.5659 33.7927 40.5659H33.6679C33.6213 40.5659 33.5798 40.5772 33.542 40.5848H33.518C33.1258 40.6584 32.7719 40.8678 32.5185 41.1762C32.2652 41.4846 32.1285 41.8724 32.1324 42.2715V55.5073C32.1214 56.0339 32.268 56.4538 32.572 56.7671C32.739 56.9285 32.9363 57.0553 33.1525 57.1402C33.3686 57.2252 33.5995 57.2666 33.8317 57.2621H33.838C34.0702 57.2666 34.3011 57.2252 34.5173 57.1402C34.7334 57.0553 34.9307 56.9285 35.0977 56.7671C35.4013 56.4572 35.5487 56.0389 35.5374 55.5237V42.2715C35.5419 41.8729 35.4062 41.4854 35.1541 41.1766C34.902 40.8679 34.5494 40.6575 34.158 40.5822Z" stroke="black" stroke-width="0.8"/>
<path d="M42.9785 44.9912L42.9357 44.9837C42.8979 44.9837 42.8576 44.9711 42.816 44.9673H42.4784C42.4381 44.9673 42.3978 44.9774 42.3587 44.9849L42.3121 44.9925C42.2668 45.0013 42.2227 45.0139 42.1786 45.0252L42.1546 45.0328C42.1038 45.0478 42.0537 45.0655 42.0047 45.0857H41.9934C41.6806 45.2156 41.414 45.4363 41.2278 45.7192C41.0417 46.0021 40.9446 46.3343 40.9491 46.673V51.0983C40.9226 52.3077 41.7742 52.7927 42.5124 52.8418C43.3048 52.8972 44.213 52.4727 44.3352 51.412C44.3501 51.3081 44.3581 51.2033 44.3592 51.0983V46.6893C44.3665 46.2889 44.2319 45.8987 43.9792 45.588C43.7265 45.2772 43.372 45.0658 42.9785 44.9912Z" stroke="black" stroke-width="0.8"/>
<path d="M40.0207 77.3231C39.5697 77.3339 39.1328 77.1652 38.8062 76.8539C38.4796 76.5427 38.29 76.1144 38.2791 75.6634C38.2683 75.2124 38.437 74.7755 38.7483 74.4489C39.0595 74.1223 39.4878 73.9327 39.9388 73.9218C50.1501 73.418 54.1912 68.1083 55.7835 63.7421C55.9445 63.3273 56.2618 62.9921 56.6671 62.8085C57.0724 62.6249 57.5336 62.6074 57.9516 62.7599C58.3696 62.9124 58.7113 63.2226 58.9032 63.6241C59.0951 64.0256 59.122 64.4862 58.9781 64.9073C55.2695 75.0833 45.5622 77.0485 40.1051 77.3218L40.0207 77.3231Z" stroke="black" stroke-width="0.8"/>
<path d="M33.5609 81.6993C32.2625 81.6996 30.9931 81.3148 29.9134 80.5936C28.8337 79.8724 27.9922 78.8471 27.4952 77.6476C26.9982 76.4481 26.8681 75.1281 27.1213 73.8546C27.3746 72.5811 27.9998 71.4114 28.9179 70.4932C29.836 69.5751 31.0058 68.9499 32.2793 68.6967C33.5528 68.4434 34.8727 68.5735 36.0723 69.0705C37.2718 69.5675 38.297 70.4091 39.0182 71.4888C39.7394 72.5685 40.1242 73.8378 40.124 75.1362C40.122 76.8762 39.4299 78.5444 38.1995 79.7748C36.9691 81.0052 35.3009 81.6973 33.5609 81.6993ZM33.5609 71.9731C32.9352 71.9728 32.3235 72.1581 31.8032 72.5055C31.2828 72.853 30.8772 73.3469 30.6376 73.9249C30.398 74.5028 30.3352 75.1389 30.4571 75.7525C30.579 76.3662 30.8802 76.93 31.3225 77.3725C31.7648 77.8149 32.3284 78.1163 32.942 78.2385C33.5557 78.3606 34.1917 78.2981 34.7698 78.0587C35.3479 77.8193 35.842 77.4139 36.1896 76.8937C36.5372 76.3735 36.7228 75.7619 36.7228 75.1362C36.7221 74.2977 36.3888 73.4937 35.796 72.9007C35.2032 72.3077 34.3994 71.9741 33.5609 71.9731Z" stroke="black" stroke-width="0.8"/>
<g style="mix-blend-mode:multiply">
<circle cx="56.8496" cy="13.6843" r="10.5" fill="url(#paint0_linear_204_3)"/>
</g>
<defs>
<linearGradient id="paint0_linear_204_3" x1="48.335" y1="-0.892636" x2="70.3763" y2="0.494112" gradientUnits="userSpaceOnUse">
<stop stop-color="#0085FF"/>
<stop offset="1" stop-color="#591FFF"/>
</linearGradient>
</defs>
</svg>
