<svg width="68" height="83" fill="none" xmlns="http://www.w3.org/2000/svg"><path d="M66.398 33.462a32.423 32.423 0 00-5.83-18.606 1.545 1.545 0 00-.083-.112l-.018-.024A32.567 32.567 0 0052.68 6.9l-.02-.015a2.14 2.14 0 00-.2-.143l-.021-.012a9.451 9.451 0 00-.27-.186l-.158-.107c-.196-.126-.393-.262-.591-.389l-.12-.074-.083-.053-.378-.233a25.904 25.904 0 00-.311-.188l-.26-.154c-.126-.07-.24-.14-.362-.209l-.139-.078c-.314-.176-.63-.345-.927-.504l-.016-.008a35.598 35.598 0 00-.484-.246l-.111-.055c-.164-.081-.326-.16-.49-.237l-.03-.014a27.824 27.824 0 00-1.598-.702l-.084-.034-.504-.199-.098-.036a29.683 29.683 0 00-1.55-.546l-.167-.054-.435-.135-.243-.067c-.14-.04-.28-.083-.42-.126l-.205-.055-.088-.024c-.206-.055-.412-.11-.62-.161h-.025c-.126-.03-.244-.062-.368-.09l-.28-.064-.04-.009a24.751 24.751 0 00-.417-.09h-.023l-.265-.056a38.98 38.98 0 00-.557-.106l-.152-.029-.733-.126-.162-.024c-.201-.03-.403-.057-.604-.084l-.18-.023a39.518 39.518 0 00-.673-.076l-.08-.01A32.91 32.91 0 0035.56.95l-.126-.006c-.228-.012-.457-.02-.686-.027h-.114c-.293 0-.54-.01-.773-.01h-.05c-.235 0-.482 0-.775.01h-.114c-.23.007-.458.015-.686.027L32.11.95a32.85 32.85 0 00-1.579.12l-.08.009c-.225.024-.449.049-.672.076l-.18.023c-.203.027-.404.054-.605.084l-.16.024c-.263.04-.505.081-.734.126l-.152.03c-.187.033-.372.069-.557.105l-.272.057h-.017c-.14.029-.278.06-.417.09l-.03.007-.29.065-.394.097c-.207.052-.413.106-.617.16l-.088.023c-.07.019-.139.037-.207.057a8.4 8.4 0 00-.42.126l-.24.07-.44.138-.168.054a31.82 31.82 0 00-1.551.545l-.097.037c-.17.065-.338.126-.504.2l-.083.033c-.54.22-1.077.456-1.598.701l-.031.016a28.71 28.71 0 00-.488.235l-.113.056c-.159.079-.317.16-.475.241l-.025.013c-.302.157-.612.325-.925.504l-.14.08c-.127.067-.241.138-.362.208l-.272.138c-.105.061-.208.126-.311.187a22.66 22.66 0 00-.378.235l-.081.05c-.04.024-.08.05-.126.076-.2.126-.397.252-.593.389l-.15.102-.277.19-.02.013a2.42 2.42 0 00-.19.143l-.02.015a32.566 32.566 0 00-7.788 7.822l-.018.024c-.028.034-.054.07-.08.106a32.433 32.433 0 00-5.833 18.613v22.045c0 .85.176 1.69.519 2.467a6.015 6.015 0 001.26 1.864l4.408 4.41a6.046 6.046 0 002.176 1.397c.974.36 2.023.47 3.05.318a5.98 5.98 0 001.454-.396 6.172 6.172 0 003.765-5.65V37.861a6.126 6.126 0 00-6.292-6.085 6.094 6.094 0 00-4.15 1.773l-1.92 1.928a.504.504 0 01-.86-.357v-1.659a29.654 29.654 0 01.89-7.23 29.013 29.013 0 014.319-9.437c.055-.076.104-.157.146-.24a.37.37 0 01.04-.066 28.943 28.943 0 016.667-6.702.53.53 0 01.066-.041 2.21 2.21 0 00.34-.214l.02-.014a28.814 28.814 0 0112.583-4.936l.126-.018.423-.054.287-.031h.046l.287-.032c.207-.02.417-.039.63-.054.035 0 .07 0 .107-.007h.065l.52-.033.208-.01c.17-.008.342-.014.512-.02h.185c.457-.01.92-.01 1.38 0h.183c.172 0 .343.012.513.02l.209.01.519.033h.066a27.708 27.708 0 01.737.062l.287.03h.046l.286.032.423.054.126.018A28.826 28.826 0 0150.5 9.518l.019.014c.106.081.22.153.339.214a.399.399 0 01.066.041 28.925 28.925 0 016.668 6.702c.015.02.029.043.04.065.041.082.089.161.142.236a28.974 28.974 0 014.322 9.448c.593 2.362.894 4.789.893 7.224v1.653a.503.503 0 01-.86.357l-1.92-1.922a6.1 6.1 0 00-4.15-1.773h-.169a6.126 6.126 0 00-6.123 6.088v22.051a6.075 6.075 0 005.223 6.047 6.18 6.18 0 003.05-.324 6.005 6.005 0 002.172-1.397l4.41-4.409a5.98 5.98 0 001.26-1.863c.342-.778.52-1.619.52-2.469l-.003-22.039zM4.672 42.23a2.69 2.69 0 01.79-1.86l4.408-4.41a2.695 2.695 0 011.834-.797 2.74 2.74 0 011.905.693 2.674 2.674 0 01.881 2.015v22.045a2.672 2.672 0 01-.543 1.696 2.79 2.79 0 01-1.133.824 2.846 2.846 0 01-1.09.23h-.008c-.682 0-1.305-.286-1.849-.831l-4.409-4.41a2.702 2.702 0 01-.796-1.918l.009-13.278zm57.526 15.194l-4.409 4.41c-.546.544-1.166.823-1.847.828h-.007a2.843 2.843 0 01-1.093-.229 2.791 2.791 0 01-1.126-.82 2.676 2.676 0 01-.549-1.696V37.871a2.672 2.672 0 01.882-2.015 2.741 2.741 0 011.9-.69c.693.021 1.35.306 1.837.798l4.41 4.41c.492.49.775 1.152.79 1.847l.01 13.286a2.697 2.697 0 01-.798 1.916z" fill="#000"/><path d="M25.666 45.09c-.05-.02-.1-.039-.152-.055l-.025-.006a1.225 1.225 0 00-.134-.034l-.048-.008a1.21 1.21 0 00-.118-.017h-.338c-.042.004-.084.01-.126.017h-.04a1.694 1.694 0 00-1.378 1.688v4.423c0 .101.008.202.023.301.125 1.072 1.031 1.498 1.824 1.443.738-.05 1.59-.534 1.563-1.732v-4.42a1.696 1.696 0 00-1.05-1.6zm8.492-4.508h-.033a1.853 1.853 0 00-.126-.016h-.331c-.047 0-.088.011-.126.019h-.024a1.7 1.7 0 00-1.386 1.687v13.235c-.01.527.136.947.44 1.26a1.762 1.762 0 001.26.495h.006a1.763 1.763 0 001.26-.495c.303-.31.45-.728.44-1.243V42.272a1.701 1.701 0 00-1.38-1.69zm8.82 4.409l-.042-.007c-.038 0-.078-.013-.12-.017h-.338c-.04 0-.08.01-.12.018l-.046.008c-.045.008-.09.02-.133.032l-.024.008a1.335 1.335 0 00-.15.053h-.012a1.695 1.695 0 00-1.044 1.587v4.425c-.026 1.21.825 1.695 1.563 1.744.793.055 1.701-.37 1.823-1.43.015-.104.023-.209.024-.314V46.69a1.697 1.697 0 00-1.38-1.698zM40.02 77.323a1.701 1.701 0 01-.081-3.401c10.211-.504 14.252-5.814 15.844-10.18a1.7 1.7 0 013.195 1.165C55.27 75.083 45.562 77.05 40.105 77.322l-.084.001z" fill="#000"/><path d="M33.56 81.7a6.564 6.564 0 11-.002-13.13 6.564 6.564 0 01.003 13.13zm0-9.727a3.163 3.163 0 10-.002 6.325 3.163 3.163 0 00.003-6.325z" fill="#000"/><path d="M66.398 33.462a32.423 32.423 0 00-5.83-18.606 1.545 1.545 0 00-.083-.112l-.018-.024A32.567 32.567 0 0052.68 6.9l-.02-.015a2.14 2.14 0 00-.2-.143l-.021-.012a9.451 9.451 0 00-.27-.186l-.158-.107c-.196-.126-.393-.262-.591-.389l-.12-.074-.083-.053-.378-.233a25.904 25.904 0 00-.311-.188l-.26-.154c-.126-.07-.24-.14-.362-.209l-.139-.078c-.314-.176-.63-.345-.927-.504l-.016-.008a35.598 35.598 0 00-.484-.246l-.111-.055c-.164-.081-.326-.16-.49-.237l-.03-.014a27.824 27.824 0 00-1.598-.702l-.084-.034-.504-.199-.098-.036a29.683 29.683 0 00-1.55-.546l-.167-.054-.435-.135-.243-.067c-.14-.04-.28-.083-.42-.126l-.205-.055-.088-.024c-.206-.055-.412-.11-.62-.161h-.025c-.126-.03-.244-.062-.368-.09l-.28-.064-.04-.009a24.751 24.751 0 00-.417-.09h-.023l-.265-.056a38.98 38.98 0 00-.557-.106l-.152-.029-.733-.126-.162-.024c-.201-.03-.403-.057-.604-.084l-.18-.023a39.518 39.518 0 00-.673-.076l-.08-.01A32.91 32.91 0 0035.56.95l-.126-.006c-.228-.012-.457-.02-.686-.027h-.114c-.293 0-.54-.01-.773-.01h-.05c-.235 0-.482 0-.775.01h-.114c-.23.007-.458.015-.686.027L32.11.95a32.85 32.85 0 00-1.579.12l-.08.009c-.225.024-.449.049-.672.076l-.18.023c-.203.027-.404.054-.605.084l-.16.024c-.263.04-.505.081-.734.126l-.152.03c-.187.033-.372.069-.557.105l-.272.057h-.017c-.14.029-.278.06-.417.09l-.03.007-.29.065-.394.097c-.207.052-.413.106-.617.16l-.088.023c-.07.019-.139.037-.207.057a8.4 8.4 0 00-.42.126l-.24.07-.44.138-.168.054a31.82 31.82 0 00-1.551.545l-.097.037c-.17.065-.338.126-.504.2l-.083.033c-.54.22-1.077.456-1.598.701l-.031.016a28.71 28.71 0 00-.488.235l-.113.056c-.159.079-.317.16-.475.241l-.025.013c-.302.157-.612.325-.925.504l-.14.08c-.127.067-.241.138-.362.208l-.272.138c-.105.061-.208.126-.311.187a22.66 22.66 0 00-.378.235l-.081.05c-.04.024-.08.05-.126.076-.2.126-.397.252-.593.389l-.15.102-.277.19-.02.013a2.42 2.42 0 00-.19.143l-.02.015a32.566 32.566 0 00-7.788 7.822l-.018.024c-.028.034-.054.07-.08.106a32.433 32.433 0 00-5.833 18.613v22.045c0 .85.176 1.69.519 2.467a6.015 6.015 0 001.26 1.864l4.408 4.41a6.046 6.046 0 002.176 1.397c.974.36 2.023.47 3.05.318a5.98 5.98 0 001.454-.396 6.172 6.172 0 003.765-5.65V37.861a6.126 6.126 0 00-6.292-6.085 6.094 6.094 0 00-4.15 1.773l-1.92 1.928a.504.504 0 01-.86-.357v-1.659a29.654 29.654 0 01.89-7.23 29.013 29.013 0 014.319-9.437c.055-.076.104-.157.146-.24a.37.37 0 01.04-.066 28.943 28.943 0 016.667-6.702.53.53 0 01.066-.041 2.21 2.21 0 00.34-.214l.02-.014a28.814 28.814 0 0112.583-4.936l.126-.018.423-.054.287-.031h.046l.287-.032c.207-.02.417-.039.63-.054.035 0 .07 0 .107-.007h.065l.52-.033.208-.01c.17-.008.342-.014.512-.02h.185c.457-.01.92-.01 1.38 0h.183c.172 0 .343.012.513.02l.209.01.519.033h.066a27.708 27.708 0 01.737.062l.287.03h.046l.286.032.423.054.126.018A28.826 28.826 0 0150.5 9.518l.019.014c.106.081.22.153.339.214a.399.399 0 01.066.041 28.925 28.925 0 016.668 6.702c.015.02.029.043.04.065.041.082.089.161.142.236a28.974 28.974 0 014.322 9.448c.593 2.362.894 4.789.893 7.224v1.653a.503.503 0 01-.86.357l-1.92-1.922a6.1 6.1 0 00-4.15-1.773h-.169a6.126 6.126 0 00-6.123 6.088v22.051a6.075 6.075 0 005.223 6.047 6.18 6.18 0 003.05-.324 6.005 6.005 0 002.172-1.397l4.41-4.409a5.98 5.98 0 001.26-1.863c.342-.778.52-1.619.52-2.469l-.003-22.039zM4.672 42.23a2.69 2.69 0 01.79-1.86l4.408-4.41a2.695 2.695 0 011.834-.797 2.74 2.74 0 011.905.693 2.674 2.674 0 01.881 2.015v22.045a2.672 2.672 0 01-.543 1.696 2.79 2.79 0 01-1.133.824 2.846 2.846 0 01-1.09.23h-.008c-.682 0-1.305-.286-1.849-.831l-4.409-4.41a2.702 2.702 0 01-.796-1.918l.009-13.278zm57.526 15.194l-4.409 4.41c-.546.544-1.166.823-1.847.828h-.007a2.843 2.843 0 01-1.093-.229 2.791 2.791 0 01-1.126-.82 2.676 2.676 0 01-.549-1.696V37.871a2.672 2.672 0 01.882-2.015 2.741 2.741 0 011.9-.69c.693.021 1.35.306 1.837.798l4.41 4.41c.492.49.775 1.152.79 1.847l.01 13.286a2.697 2.697 0 01-.798 1.916z" stroke="#000" stroke-width=".8"/><path d="M25.666 45.09c-.05-.02-.1-.039-.152-.055l-.025-.006a1.225 1.225 0 00-.134-.034l-.048-.008a1.21 1.21 0 00-.118-.017h-.338c-.042.004-.084.01-.126.017h-.04a1.694 1.694 0 00-1.378 1.688v4.423c0 .101.008.202.023.301.125 1.072 1.031 1.498 1.824 1.443.738-.05 1.59-.534 1.563-1.732v-4.42a1.696 1.696 0 00-1.05-1.6zm8.492-4.508h-.033a1.853 1.853 0 00-.126-.016h-.331c-.047 0-.088.011-.126.019h-.024a1.7 1.7 0 00-1.386 1.687v13.235c-.01.527.136.947.44 1.26a1.762 1.762 0 001.26.495h.006a1.763 1.763 0 001.26-.495c.303-.31.45-.728.44-1.243V42.272a1.701 1.701 0 00-1.38-1.69zm8.82 4.409l-.042-.007c-.038 0-.078-.013-.12-.017h-.338c-.04 0-.08.01-.12.018l-.046.008c-.045.008-.09.02-.133.032l-.024.008a1.335 1.335 0 00-.15.053h-.012a1.695 1.695 0 00-1.044 1.587v4.425c-.026 1.21.825 1.695 1.563 1.744.793.055 1.701-.37 1.823-1.43.015-.104.023-.209.024-.314V46.69a1.697 1.697 0 00-1.38-1.698zM40.02 77.323a1.701 1.701 0 01-.081-3.401c10.211-.504 14.252-5.814 15.844-10.18a1.7 1.7 0 013.195 1.165C55.27 75.083 45.562 77.05 40.105 77.322l-.084.001z" stroke="#000" stroke-width=".8"/><path d="M33.56 81.7a6.564 6.564 0 11-.002-13.13 6.564 6.564 0 01.003 13.13zm0-9.727a3.163 3.163 0 10-.002 6.325 3.163 3.163 0 00.003-6.325z" stroke="#000" stroke-width=".8"/><circle cx="56.85" cy="13.684" r="10.5" fill="url(#paint0_linear_204_3)"/><defs><linearGradient id="paint0_linear_204_3" x1="48.335" y1="-.893" x2="70.376" y2=".494" gradientUnits="userSpaceOnUse"><stop stop-color="#0085FF"/><stop offset="1" stop-color="#591FFF"/></linearGradient></defs></svg>