<svg width="100" height="82" fill="none" xmlns="http://www.w3.org/2000/svg"><path d="M55.303 48.089h-4.115v4.115h4.114v-4.115zm-10.288 0H40.9v4.115h4.115v-4.115zm20.573 0h-4.115v4.115h4.115v-4.115zm10.287 0H71.76v4.115h4.115v-4.115zM55.303 58.374h-4.115v4.115h4.114v-4.115zm-10.288 0H40.9v4.115h4.115v-4.115zm20.573 0h-4.115v4.115h4.115v-4.115zm10.287 0H71.76v4.115h4.115v-4.115z" fill="#000"/><path d="M93.277 68.127h-1.25V29.069a1.947 1.947 0 00-1.087-1.753 1.97 1.97 0 00-2.052.19l-12.673 9.526v-7.963a1.96 1.96 0 00-3.137-1.568l-12.675 9.53V29.07a1.945 1.945 0 00-1.085-1.753 1.966 1.966 0 00-2.052.19l-12.675 9.526V29.07a1.962 1.962 0 00-3.248-1.476l-5.085 4.46v5.218l4.415-3.87v7.566a1.947 1.947 0 001.085 1.754 1.97 1.97 0 002.056-.191L56.485 33v7.967a1.962 1.962 0 003.135 1.563l12.673-9.531v7.968a1.946 1.946 0 001.085 1.754 1.977 1.977 0 002.058-.191L88.106 33v35.127H6.478a5.889 5.889 0 00-5.89 5.89v5.877a1.966 1.966 0 001.97 1.955h94.636a1.965 1.965 0 001.97-1.962v-5.87a5.89 5.89 0 00-5.888-5.89zm1.958 9.798H4.52v-3.909a1.96 1.96 0 011.958-1.958h86.798a1.96 1.96 0 011.958 1.958v3.909z" fill="#000"/><path d="M19.638 62.602a11.525 11.525 0 0011.477-11.307V10.492l1.158 1.244c2.302 2.483 5.217 4.011 8.914 4.676a1.761 1.761 0 00.63-3.465c-5.454-.992-8.877-4.459-10.774-10.91a1.762 1.762 0 00-3.45.495v40.213l-1.07-.805a11.365 11.365 0 00-6.877-2.292 11.48 11.48 0 000 22.959l-.008-.006zm0-19.436a7.957 7.957 0 11-7.957 7.957 7.964 7.964 0 017.957-7.957z" fill="#000"/><circle cx="88.664" cy="26.184" r="10.5" fill="url(#paint0_linear_204_4)"/><defs><linearGradient id="paint0_linear_204_4" x1="80.15" y1="11.607" x2="102.191" y2="12.994" gradientUnits="userSpaceOnUse"><stop stop-color="#0085FF"/><stop offset="1" stop-color="#591FFF"/></linearGradient></defs></svg>