<svg width="100" height="82" viewBox="0 0 100 82" fill="none" xmlns="http://www.w3.org/2000/svg">
<path d="M55.3025 48.0889H51.1876V52.2038H55.3025V48.0889Z" fill="black"/>
<path d="M45.0152 48.0889H40.9003V52.2038H45.0152V48.0889Z" fill="black"/>
<path d="M65.5879 48.0889H61.473V52.2038H65.5879V48.0889Z" fill="black"/>
<path d="M75.8752 48.0889H71.7603V52.2038H75.8752V48.0889Z" fill="black"/>
<path d="M55.3025 58.3743H51.1876V62.4892H55.3025V58.3743Z" fill="black"/>
<path d="M45.0152 58.3743H40.9003V62.4892H45.0152V58.3743Z" fill="black"/>
<path d="M65.5879 58.3743H61.473V62.4892H65.5879V58.3743Z" fill="black"/>
<path d="M75.8752 58.3743H71.7603V62.4892H75.8752V58.3743Z" fill="black"/>
<path d="M93.2766 68.1266H92.0273V29.0694C92.0286 28.7046 91.9274 28.3467 91.7352 28.0366C91.543 27.7266 91.2676 27.4767 90.9403 27.3156C90.614 27.1549 90.2496 27.0877 89.8874 27.1214C89.5253 27.1552 89.1795 27.2885 88.8885 27.5067L76.2152 37.0317V29.0694C76.2154 28.7052 76.1141 28.3482 75.9227 28.0384C75.7314 27.7285 75.4575 27.4782 75.1317 27.3153C74.806 27.1524 74.4414 27.0835 74.0787 27.1163C73.716 27.1491 73.3696 27.2823 73.0784 27.501L60.4032 37.0317V29.0694C60.4049 28.7047 60.3041 28.3469 60.1122 28.0368C59.9204 27.7267 59.6452 27.4768 59.3181 27.3156C58.9919 27.1545 58.6274 27.0871 58.2652 27.1208C57.903 27.1545 57.5572 27.2881 57.2664 27.5067L44.5911 37.0317V29.0694C44.5901 28.6936 44.4812 28.326 44.2774 28.0104C44.0736 27.6947 43.7834 27.4442 43.4413 27.2886C43.0992 27.1331 42.7197 27.0791 42.3478 27.133C41.9759 27.1869 41.6274 27.3464 41.3435 27.5927L36.2581 32.0533V37.2705L40.673 33.4001V40.9671C40.6715 41.3317 40.7724 41.6894 40.9642 41.9994C41.1561 42.3095 41.4311 42.5594 41.7581 42.7208C42.0848 42.8822 42.45 42.9499 42.8129 42.9161C43.1758 42.8824 43.5222 42.7487 43.8136 42.5297L56.485 33.0009V40.9671C56.4869 41.3301 56.5894 41.6856 56.7813 41.9938C56.9731 42.302 57.2467 42.551 57.5717 42.713C57.8966 42.8749 58.2601 42.9436 58.6217 42.9112C58.9833 42.8789 59.3289 42.7468 59.6199 42.5297L72.2932 32.999V40.9671C72.2917 41.3317 72.3926 41.6894 72.5845 41.9994C72.7763 42.3095 73.0514 42.5594 73.3783 42.7208C73.7055 42.8818 74.0709 42.9491 74.434 42.9154C74.7971 42.8817 75.1438 42.7482 75.4358 42.5297L88.1053 33.0009V68.1266H6.47948C5.70597 68.1264 4.93999 68.2786 4.22532 68.5745C3.51064 68.8703 2.86127 69.3042 2.31432 69.8511C1.76737 70.3981 1.33355 71.0474 1.03765 71.7621C0.741761 72.4768 0.589593 73.2428 0.589844 74.0163V79.8945C0.592875 80.4145 0.801843 80.9121 1.17099 81.2784C1.54014 81.6447 2.03939 81.8498 2.55942 81.8488H97.1948C97.453 81.8495 97.7088 81.7993 97.9476 81.7011C98.1864 81.6029 98.4035 81.4585 98.5865 81.2763C98.7694 81.094 98.9146 80.8775 99.0138 80.6391C99.1129 80.4007 99.1641 80.145 99.1644 79.8868V74.0163C99.1644 72.4546 98.5441 70.9568 97.44 69.8524C96.3359 68.7479 94.8383 68.1272 93.2766 68.1266ZM95.2347 77.9249H4.52136V74.0163C4.52187 73.4971 4.72833 72.9993 5.09544 72.6322C5.46255 72.2651 5.96031 72.0587 6.47948 72.0582H93.2766C93.7958 72.0587 94.2936 72.2651 94.6607 72.6322C95.0278 72.9993 95.2342 73.4971 95.2347 74.0163V77.9249Z" fill="black"/>
<path d="M19.638 62.6019C22.6491 62.59 25.5359 61.4001 27.6808 59.2869C29.8258 57.1737 31.0586 54.305 31.1155 51.2945C31.1155 50.9716 31.1155 12.5811 31.1155 12.1933V10.493L32.2731 11.7367C34.5751 14.2201 37.4903 15.7484 41.1869 16.4132C41.643 16.4888 42.1105 16.382 42.4886 16.1159C42.8667 15.8498 43.125 15.4457 43.2077 14.9908C43.2905 14.536 43.1911 14.0668 42.9309 13.6846C42.6708 13.3023 42.2708 13.0377 41.8173 12.9478C36.3632 11.9564 32.9399 8.48907 31.0429 2.03779C30.9227 1.63236 30.6607 1.28369 30.3048 1.05546C29.9488 0.827227 29.5226 0.734671 29.1041 0.794697C28.6855 0.854724 28.3025 1.06333 28.025 1.3824C27.7475 1.70148 27.5941 2.10972 27.5928 2.53257V42.7456L26.523 41.9414C24.5422 40.447 22.1269 39.6418 19.6457 39.6489C16.6012 39.6489 13.6813 40.8584 11.5285 43.0112C9.37575 45.1639 8.16632 48.0838 8.16632 51.1283C8.16632 54.1728 9.37575 57.0926 11.5285 59.2454C13.6813 61.3982 16.6012 62.6076 19.6457 62.6076L19.638 62.6019ZM19.638 43.1659C21.2117 43.1659 22.75 43.6326 24.0585 44.5068C25.367 45.3811 26.3868 46.6238 26.989 48.0777C27.5912 49.5316 27.7488 51.1314 27.4418 52.6748C27.1348 54.2183 26.377 55.636 25.2642 56.7487C24.1515 57.8615 22.7337 58.6193 21.1903 58.9263C19.6469 59.2333 18.047 59.0757 16.5931 58.4735C15.1393 57.8713 13.8966 56.8515 13.0223 55.543C12.148 54.2346 11.6814 52.6962 11.6814 51.1225C11.6834 49.0129 12.5223 46.9903 14.0141 45.4986C15.5058 44.0069 17.5284 43.1679 19.638 43.1659Z" fill="black"/>
<g style="mix-blend-mode:multiply">
<circle cx="88.6641" cy="26.1843" r="10.5" fill="url(#paint0_linear_204_4)"/>
</g>
<defs>
<linearGradient id="paint0_linear_204_4" x1="80.1495" y1="11.6074" x2="102.191" y2="12.9941" gradientUnits="userSpaceOnUse">
<stop stop-color="#0085FF"/>
<stop offset="1" stop-color="#591FFF"/>
</linearGradient>
</defs>
</svg>
